<mxfile host="app.diagrams.net" agent="Mozilla/5.0 (Windows NT 10.0; Win64; x64) AppleWebKit/537.36 (KHTML, like Gecko) Chrome/134.0.0.0 Safari/537.36" version="26.1.1" pages="2">
  <diagram id="9fy4mFYYixjaAB402eeC" name="PÃ¡gina-2">
    <mxGraphModel dx="3703" dy="2283" grid="1" gridSize="10" guides="1" tooltips="1" connect="1" arrows="1" fold="1" page="1" pageScale="1" pageWidth="827" pageHeight="1169" math="0" shadow="0">
      <root>
        <mxCell id="0" />
        <mxCell id="1" parent="0" />
        <mxCell id="3gOnY-SJ9KaZzBldq2Iy-1" value="USUARIO" style="whiteSpace=wrap;html=1;align=center;" parent="1" vertex="1">
          <mxGeometry x="-420" y="421" width="100" height="40" as="geometry" />
        </mxCell>
        <mxCell id="3gOnY-SJ9KaZzBldq2Iy-2" value="ID_Usuario" style="ellipse;whiteSpace=wrap;html=1;align=center;fontStyle=4;" parent="1" vertex="1">
          <mxGeometry x="-274.5" y="180" width="100" height="40" as="geometry" />
        </mxCell>
        <mxCell id="3gOnY-SJ9KaZzBldq2Iy-3" value="nombre" style="ellipse;whiteSpace=wrap;html=1;align=center;" parent="1" vertex="1">
          <mxGeometry x="-220" y="495" width="100" height="40" as="geometry" />
        </mxCell>
        <mxCell id="3gOnY-SJ9KaZzBldq2Iy-4" value="Email" style="ellipse;whiteSpace=wrap;html=1;align=center;" parent="1" vertex="1">
          <mxGeometry x="-374.5" y="210" width="100" height="40" as="geometry" />
        </mxCell>
        <mxCell id="3gOnY-SJ9KaZzBldq2Iy-5" value="Presupuesto" style="ellipse;whiteSpace=wrap;html=1;align=center;" parent="1" vertex="1">
          <mxGeometry x="-190" y="220" width="100" height="41" as="geometry" />
        </mxCell>
        <mxCell id="3gOnY-SJ9KaZzBldq2Iy-6" value="telefono" style="ellipse;whiteSpace=wrap;html=1;align=center;" parent="1" vertex="1">
          <mxGeometry x="-130" y="300" width="100" height="40" as="geometry" />
        </mxCell>
        <mxCell id="3gOnY-SJ9KaZzBldq2Iy-7" value="&lt;span style=&quot;text-align: left; text-wrap: nowrap;&quot;&gt;Estilo-vida&lt;/span&gt;" style="ellipse;whiteSpace=wrap;html=1;align=center;" parent="1" vertex="1">
          <mxGeometry x="-174.5" y="381" width="110" height="40" as="geometry" />
        </mxCell>
        <mxCell id="3gOnY-SJ9KaZzBldq2Iy-8" value="" style="endArrow=none;html=1;rounded=0;exitX=0.74;exitY=0.95;exitDx=0;exitDy=0;entryX=0.5;entryY=0;entryDx=0;entryDy=0;exitPerimeter=0;" parent="1" source="3gOnY-SJ9KaZzBldq2Iy-2" target="3gOnY-SJ9KaZzBldq2Iy-1" edge="1">
          <mxGeometry relative="1" as="geometry">
            <mxPoint x="-353.5" y="586" as="sourcePoint" />
            <mxPoint x="-309.5" y="686" as="targetPoint" />
            <Array as="points" />
          </mxGeometry>
        </mxCell>
        <mxCell id="3gOnY-SJ9KaZzBldq2Iy-9" value="" style="endArrow=none;html=1;rounded=0;exitX=1;exitY=1;exitDx=0;exitDy=0;entryX=0.25;entryY=0;entryDx=0;entryDy=0;" parent="1" source="3gOnY-SJ9KaZzBldq2Iy-4" target="3gOnY-SJ9KaZzBldq2Iy-1" edge="1">
          <mxGeometry relative="1" as="geometry">
            <mxPoint x="-294.5" y="746" as="sourcePoint" />
            <mxPoint x="-134.5" y="746" as="targetPoint" />
            <Array as="points" />
          </mxGeometry>
        </mxCell>
        <mxCell id="3gOnY-SJ9KaZzBldq2Iy-10" value="" style="endArrow=none;html=1;rounded=0;exitX=0;exitY=0;exitDx=0;exitDy=0;entryX=1;entryY=1;entryDx=0;entryDy=0;" parent="1" source="3gOnY-SJ9KaZzBldq2Iy-3" target="3gOnY-SJ9KaZzBldq2Iy-1" edge="1">
          <mxGeometry relative="1" as="geometry">
            <mxPoint x="-94.5" y="746" as="sourcePoint" />
            <mxPoint x="65.5" y="746" as="targetPoint" />
          </mxGeometry>
        </mxCell>
        <mxCell id="3gOnY-SJ9KaZzBldq2Iy-11" value="" style="endArrow=none;html=1;rounded=0;exitX=0.5;exitY=1;exitDx=0;exitDy=0;entryX=0.75;entryY=0;entryDx=0;entryDy=0;" parent="1" source="3gOnY-SJ9KaZzBldq2Iy-5" target="3gOnY-SJ9KaZzBldq2Iy-1" edge="1">
          <mxGeometry relative="1" as="geometry">
            <mxPoint x="-334.5" y="776" as="sourcePoint" />
            <mxPoint x="-174.5" y="776" as="targetPoint" />
            <Array as="points" />
          </mxGeometry>
        </mxCell>
        <mxCell id="3gOnY-SJ9KaZzBldq2Iy-12" value="" style="endArrow=none;html=1;rounded=0;exitX=0.06;exitY=0.775;exitDx=0;exitDy=0;entryX=1;entryY=0;entryDx=0;entryDy=0;exitPerimeter=0;" parent="1" source="3gOnY-SJ9KaZzBldq2Iy-6" target="3gOnY-SJ9KaZzBldq2Iy-1" edge="1">
          <mxGeometry relative="1" as="geometry">
            <mxPoint x="-344.5" y="856" as="sourcePoint" />
            <mxPoint x="-184.5" y="856" as="targetPoint" />
            <Array as="points" />
          </mxGeometry>
        </mxCell>
        <mxCell id="3gOnY-SJ9KaZzBldq2Iy-13" value="" style="endArrow=none;html=1;rounded=0;exitX=0;exitY=1;exitDx=0;exitDy=0;entryX=1;entryY=0.25;entryDx=0;entryDy=0;" parent="1" source="3gOnY-SJ9KaZzBldq2Iy-7" target="3gOnY-SJ9KaZzBldq2Iy-1" edge="1">
          <mxGeometry relative="1" as="geometry">
            <mxPoint x="-274.5" y="866" as="sourcePoint" />
            <mxPoint x="-354.5" y="456.00000000000006" as="targetPoint" />
            <Array as="points" />
          </mxGeometry>
        </mxCell>
        <mxCell id="3gOnY-SJ9KaZzBldq2Iy-14" value="AI-SUGERENCIA" style="whiteSpace=wrap;html=1;align=center;" parent="1" vertex="1">
          <mxGeometry x="-440" y="803.5000000000001" width="110" height="40" as="geometry" />
        </mxCell>
        <mxCell id="3gOnY-SJ9KaZzBldq2Iy-15" value="id_usuario_FK" style="ellipse;whiteSpace=wrap;html=1;align=center;" parent="1" vertex="1">
          <mxGeometry x="-544.5" y="843.5000000000001" width="100" height="41" as="geometry" />
        </mxCell>
        <mxCell id="3gOnY-SJ9KaZzBldq2Iy-16" value="" style="endArrow=none;html=1;rounded=0;exitX=1;exitY=0.5;exitDx=0;exitDy=0;entryX=0;entryY=1;entryDx=0;entryDy=0;" parent="1" source="3gOnY-SJ9KaZzBldq2Iy-15" target="3gOnY-SJ9KaZzBldq2Iy-14" edge="1">
          <mxGeometry relative="1" as="geometry">
            <mxPoint x="-854.5" y="1226.5" as="sourcePoint" />
            <mxPoint x="-824.5" y="1275.5" as="targetPoint" />
            <Array as="points" />
          </mxGeometry>
        </mxCell>
        <mxCell id="3gOnY-SJ9KaZzBldq2Iy-17" value="descripcion" style="ellipse;whiteSpace=wrap;html=1;align=center;" parent="1" vertex="1">
          <mxGeometry x="-557.5" y="790.5000000000001" width="110" height="40" as="geometry" />
        </mxCell>
        <mxCell id="3gOnY-SJ9KaZzBldq2Iy-18" value="" style="endArrow=none;html=1;rounded=0;exitX=1;exitY=0.5;exitDx=0;exitDy=0;entryX=0;entryY=0.5;entryDx=0;entryDy=0;" parent="1" source="3gOnY-SJ9KaZzBldq2Iy-17" target="3gOnY-SJ9KaZzBldq2Iy-14" edge="1">
          <mxGeometry relative="1" as="geometry">
            <mxPoint x="-874.5" y="1136.5" as="sourcePoint" />
            <mxPoint x="-844.5" y="1185.5" as="targetPoint" />
            <Array as="points" />
          </mxGeometry>
        </mxCell>
        <mxCell id="3gOnY-SJ9KaZzBldq2Iy-19" style="edgeStyle=orthogonalEdgeStyle;rounded=0;orthogonalLoop=1;jettySize=auto;html=1;exitX=0.5;exitY=1;exitDx=0;exitDy=0;" parent="1" edge="1">
          <mxGeometry relative="1" as="geometry">
            <mxPoint x="-1020.8100000000009" y="954.8900000000009" as="sourcePoint" />
            <mxPoint x="-1020.8100000000009" y="954.8900000000009" as="targetPoint" />
          </mxGeometry>
        </mxCell>
        <mxCell id="3gOnY-SJ9KaZzBldq2Iy-20" value="id_sugerencia" style="ellipse;whiteSpace=wrap;html=1;align=center;" parent="1" vertex="1">
          <mxGeometry x="-549.5" y="749.5000000000001" width="100" height="41" as="geometry" />
        </mxCell>
        <mxCell id="3gOnY-SJ9KaZzBldq2Iy-21" value="" style="endArrow=none;html=1;rounded=0;exitX=0.98;exitY=0.683;exitDx=0;exitDy=0;entryX=0;entryY=0.25;entryDx=0;entryDy=0;exitPerimeter=0;" parent="1" source="3gOnY-SJ9KaZzBldq2Iy-20" target="3gOnY-SJ9KaZzBldq2Iy-14" edge="1">
          <mxGeometry relative="1" as="geometry">
            <mxPoint x="-854.5" y="1271.5" as="sourcePoint" />
            <mxPoint x="-814.5" y="1275.5" as="targetPoint" />
            <Array as="points" />
          </mxGeometry>
        </mxCell>
        <mxCell id="3gOnY-SJ9KaZzBldq2Iy-23" value="Paquete" style="whiteSpace=wrap;html=1;align=center;" parent="1" vertex="1">
          <mxGeometry x="-1109.1899999999998" y="412.99999999999994" width="110" height="50" as="geometry" />
        </mxCell>
        <mxCell id="3gOnY-SJ9KaZzBldq2Iy-24" value="precioTotal" style="ellipse;whiteSpace=wrap;html=1;align=center;fontStyle=4;" parent="1" vertex="1">
          <mxGeometry x="-1333.34" y="399.99999999999994" width="100" height="40" as="geometry" />
        </mxCell>
        <mxCell id="3gOnY-SJ9KaZzBldq2Iy-25" value="id_reserva (FK)" style="ellipse;whiteSpace=wrap;html=1;align=center;" parent="1" vertex="1">
          <mxGeometry x="-1328.3400000000001" y="455" width="100" height="40" as="geometry" />
        </mxCell>
        <mxCell id="3gOnY-SJ9KaZzBldq2Iy-26" value="Descripcion" style="ellipse;whiteSpace=wrap;html=1;align=center;" parent="1" vertex="1">
          <mxGeometry x="-1318.3400000000001" y="319.99999999999994" width="100" height="41" as="geometry" />
        </mxCell>
        <mxCell id="3gOnY-SJ9KaZzBldq2Iy-27" value="nombrePaquete" style="ellipse;whiteSpace=wrap;html=1;align=center;" parent="1" vertex="1">
          <mxGeometry x="-1300" y="259.99999999999994" width="100" height="40" as="geometry" />
        </mxCell>
        <mxCell id="3gOnY-SJ9KaZzBldq2Iy-28" value="&lt;span style=&quot;text-align: left; text-wrap: nowrap;&quot;&gt;Id_paquete&lt;/span&gt;" style="ellipse;whiteSpace=wrap;html=1;align=center;" parent="1" vertex="1">
          <mxGeometry x="-1280" y="199.99999999999994" width="110" height="40" as="geometry" />
        </mxCell>
        <mxCell id="3gOnY-SJ9KaZzBldq2Iy-29" value="" style="endArrow=none;html=1;rounded=0;exitX=1.01;exitY=0.35;exitDx=0;exitDy=0;exitPerimeter=0;entryX=0;entryY=0.25;entryDx=0;entryDy=0;" parent="1" source="3gOnY-SJ9KaZzBldq2Iy-24" target="3gOnY-SJ9KaZzBldq2Iy-23" edge="1">
          <mxGeometry relative="1" as="geometry">
            <mxPoint x="-1005.6899999999998" y="576" as="sourcePoint" />
            <mxPoint x="-1106.6899999999998" y="435.99999999999994" as="targetPoint" />
            <Array as="points" />
          </mxGeometry>
        </mxCell>
        <mxCell id="3gOnY-SJ9KaZzBldq2Iy-30" value="" style="endArrow=none;html=1;rounded=0;entryX=0;entryY=0.5;entryDx=0;entryDy=0;" parent="1" source="3gOnY-SJ9KaZzBldq2Iy-25" target="3gOnY-SJ9KaZzBldq2Iy-23" edge="1">
          <mxGeometry relative="1" as="geometry">
            <mxPoint x="-946.6899999999998" y="736" as="sourcePoint" />
            <mxPoint x="-1106.6899999999998" y="486" as="targetPoint" />
            <Array as="points" />
          </mxGeometry>
        </mxCell>
        <mxCell id="3gOnY-SJ9KaZzBldq2Iy-31" value="" style="endArrow=none;html=1;rounded=0;exitX=1;exitY=1;exitDx=0;exitDy=0;entryX=0;entryY=0;entryDx=0;entryDy=0;" parent="1" source="3gOnY-SJ9KaZzBldq2Iy-26" target="3gOnY-SJ9KaZzBldq2Iy-23" edge="1">
          <mxGeometry relative="1" as="geometry">
            <mxPoint x="-986.6899999999998" y="766" as="sourcePoint" />
            <mxPoint x="-826.6899999999998" y="766" as="targetPoint" />
            <Array as="points" />
          </mxGeometry>
        </mxCell>
        <mxCell id="3gOnY-SJ9KaZzBldq2Iy-32" value="" style="endArrow=none;html=1;rounded=0;exitX=1;exitY=1;exitDx=0;exitDy=0;entryX=0.127;entryY=0.04;entryDx=0;entryDy=0;entryPerimeter=0;" parent="1" source="3gOnY-SJ9KaZzBldq2Iy-27" target="3gOnY-SJ9KaZzBldq2Iy-23" edge="1">
          <mxGeometry relative="1" as="geometry">
            <mxPoint x="-996.6899999999998" y="845.9999999999998" as="sourcePoint" />
            <mxPoint x="-836.6899999999998" y="845.9999999999998" as="targetPoint" />
            <Array as="points" />
          </mxGeometry>
        </mxCell>
        <mxCell id="3gOnY-SJ9KaZzBldq2Iy-33" value="" style="endArrow=none;html=1;rounded=0;exitX=1;exitY=1;exitDx=0;exitDy=0;entryX=0.25;entryY=0;entryDx=0;entryDy=0;" parent="1" source="3gOnY-SJ9KaZzBldq2Iy-28" target="3gOnY-SJ9KaZzBldq2Iy-23" edge="1">
          <mxGeometry relative="1" as="geometry">
            <mxPoint x="-926.6899999999998" y="855.9999999999998" as="sourcePoint" />
            <mxPoint x="-1006.6899999999998" y="445.99999999999994" as="targetPoint" />
            <Array as="points" />
          </mxGeometry>
        </mxCell>
        <mxCell id="3gOnY-SJ9KaZzBldq2Iy-34" value="Destino" style="whiteSpace=wrap;html=1;align=center;" parent="1" vertex="1">
          <mxGeometry x="-1333.34" y="749.5" width="110" height="40" as="geometry" />
        </mxCell>
        <mxCell id="3gOnY-SJ9KaZzBldq2Iy-35" value="descripciÃ³n" style="ellipse;whiteSpace=wrap;html=1;align=center;" parent="1" vertex="1">
          <mxGeometry x="-1461.69" y="759.5" width="100" height="41" as="geometry" />
        </mxCell>
        <mxCell id="3gOnY-SJ9KaZzBldq2Iy-36" value="" style="endArrow=none;html=1;rounded=0;exitX=1;exitY=0.5;exitDx=0;exitDy=0;entryX=0;entryY=1;entryDx=0;entryDy=0;" parent="1" target="3gOnY-SJ9KaZzBldq2Iy-34" edge="1" source="3gOnY-SJ9KaZzBldq2Iy-35">
          <mxGeometry relative="1" as="geometry">
            <mxPoint x="-1363.3400000000001" y="820" as="sourcePoint" />
            <mxPoint x="-1692.8400000000001" y="1269.5" as="targetPoint" />
            <Array as="points" />
          </mxGeometry>
        </mxCell>
        <mxCell id="3gOnY-SJ9KaZzBldq2Iy-37" value="direcciÃ³n" style="ellipse;whiteSpace=wrap;html=1;align=center;" parent="1" vertex="1">
          <mxGeometry x="-1460.84" y="720" width="110" height="40" as="geometry" />
        </mxCell>
        <mxCell id="3gOnY-SJ9KaZzBldq2Iy-38" value="" style="endArrow=none;html=1;rounded=0;exitX=1;exitY=0.5;exitDx=0;exitDy=0;entryX=0;entryY=0.5;entryDx=0;entryDy=0;" parent="1" target="3gOnY-SJ9KaZzBldq2Iy-34" edge="1" source="3gOnY-SJ9KaZzBldq2Iy-37">
          <mxGeometry relative="1" as="geometry">
            <mxPoint x="-1358.3399999999997" y="769.5" as="sourcePoint" />
            <mxPoint x="-1712.8400000000001" y="1179.5" as="targetPoint" />
            <Array as="points" />
          </mxGeometry>
        </mxCell>
        <mxCell id="3gOnY-SJ9KaZzBldq2Iy-39" style="edgeStyle=orthogonalEdgeStyle;rounded=0;orthogonalLoop=1;jettySize=auto;html=1;exitX=0.5;exitY=1;exitDx=0;exitDy=0;" parent="1" edge="1">
          <mxGeometry relative="1" as="geometry">
            <mxPoint x="-1413.34" y="840.5" as="sourcePoint" />
            <mxPoint x="-1413.34" y="840.5" as="targetPoint" />
          </mxGeometry>
        </mxCell>
        <mxCell id="3gOnY-SJ9KaZzBldq2Iy-40" value="id_Destino" style="ellipse;whiteSpace=wrap;html=1;align=center;" parent="1" vertex="1">
          <mxGeometry x="-1450" y="670.5" width="100" height="41" as="geometry" />
        </mxCell>
        <mxCell id="3gOnY-SJ9KaZzBldq2Iy-41" value="" style="endArrow=none;html=1;rounded=0;exitX=1;exitY=0.5;exitDx=0;exitDy=0;entryX=0;entryY=0.25;entryDx=0;entryDy=0;" parent="1" target="3gOnY-SJ9KaZzBldq2Iy-34" edge="1" source="3gOnY-SJ9KaZzBldq2Iy-40">
          <mxGeometry relative="1" as="geometry">
            <mxPoint x="-1365.3399999999997" y="727.5029999999997" as="sourcePoint" />
            <mxPoint x="-1682.8400000000001" y="1269.5" as="targetPoint" />
            <Array as="points" />
          </mxGeometry>
        </mxCell>
        <mxCell id="3gOnY-SJ9KaZzBldq2Iy-42" value="DirecciÃ³n" style="ellipse;whiteSpace=wrap;html=1;align=center;" parent="1" vertex="1">
          <mxGeometry x="-1480" y="1021.6400000000001" width="100" height="41" as="geometry" />
        </mxCell>
        <mxCell id="3gOnY-SJ9KaZzBldq2Iy-43" value="nombreHotel" style="ellipse;whiteSpace=wrap;html=1;align=center;" parent="1" vertex="1">
          <mxGeometry x="-1445" y="964.6400000000001" width="110" height="40" as="geometry" />
        </mxCell>
        <mxCell id="3gOnY-SJ9KaZzBldq2Iy-44" value="" style="endArrow=none;html=1;rounded=0;exitX=1;exitY=0.5;exitDx=0;exitDy=0;entryX=0;entryY=0.5;entryDx=0;entryDy=0;" parent="1" source="3gOnY-SJ9KaZzBldq2Iy-43" target="3gOnY-SJ9KaZzBldq2Iy-57" edge="1">
          <mxGeometry relative="1" as="geometry">
            <mxPoint x="-1770" y="1325.6399999999999" as="sourcePoint" />
            <mxPoint x="-1740" y="1374.6399999999999" as="targetPoint" />
            <Array as="points" />
          </mxGeometry>
        </mxCell>
        <mxCell id="3gOnY-SJ9KaZzBldq2Iy-45" value="id_hotel" style="ellipse;whiteSpace=wrap;html=1;align=center;" parent="1" vertex="1">
          <mxGeometry x="-1445" y="904.6400000000001" width="100" height="41" as="geometry" />
        </mxCell>
        <mxCell id="3gOnY-SJ9KaZzBldq2Iy-46" value="Transporte" style="whiteSpace=wrap;html=1;align=center;" parent="1" vertex="1">
          <mxGeometry x="-940" y="917.14" width="110" height="40" as="geometry" />
        </mxCell>
        <mxCell id="3gOnY-SJ9KaZzBldq2Iy-47" value="" style="endArrow=none;html=1;rounded=0;exitX=0.98;exitY=0.683;exitDx=0;exitDy=0;entryX=0;entryY=0.25;entryDx=0;entryDy=0;exitPerimeter=0;" parent="1" source="3gOnY-SJ9KaZzBldq2Iy-45" target="3gOnY-SJ9KaZzBldq2Iy-57" edge="1">
          <mxGeometry relative="1" as="geometry">
            <mxPoint x="-1750" y="1460.6399999999999" as="sourcePoint" />
            <mxPoint x="-1710" y="1464.6399999999999" as="targetPoint" />
            <Array as="points" />
          </mxGeometry>
        </mxCell>
        <mxCell id="3gOnY-SJ9KaZzBldq2Iy-48" value="empresa" style="ellipse;whiteSpace=wrap;html=1;align=center;" parent="1" vertex="1">
          <mxGeometry x="-796.6899999999999" y="990" width="100" height="41" as="geometry" />
        </mxCell>
        <mxCell id="3gOnY-SJ9KaZzBldq2Iy-49" value="" style="endArrow=none;html=1;rounded=0;entryX=1;entryY=1;entryDx=0;entryDy=0;" parent="1" source="3gOnY-SJ9KaZzBldq2Iy-48" target="3gOnY-SJ9KaZzBldq2Iy-46" edge="1">
          <mxGeometry relative="1" as="geometry">
            <mxPoint x="-1375" y="1377.14" as="sourcePoint" />
            <mxPoint x="-1345" y="1426.14" as="targetPoint" />
            <Array as="points" />
          </mxGeometry>
        </mxCell>
        <mxCell id="3gOnY-SJ9KaZzBldq2Iy-50" value="tipoTransporte" style="ellipse;whiteSpace=wrap;html=1;align=center;" parent="1" vertex="1">
          <mxGeometry x="-780" y="940.0000000000001" width="110" height="40" as="geometry" />
        </mxCell>
        <mxCell id="3gOnY-SJ9KaZzBldq2Iy-51" style="edgeStyle=orthogonalEdgeStyle;rounded=0;orthogonalLoop=1;jettySize=auto;html=1;exitX=0.5;exitY=1;exitDx=0;exitDy=0;" parent="1" source="3gOnY-SJ9KaZzBldq2Iy-42" target="3gOnY-SJ9KaZzBldq2Iy-42" edge="1">
          <mxGeometry relative="1" as="geometry" />
        </mxCell>
        <mxCell id="3gOnY-SJ9KaZzBldq2Iy-52" value="" style="endArrow=none;html=1;rounded=0;exitX=1;exitY=0.5;exitDx=0;exitDy=0;entryX=0;entryY=1;entryDx=0;entryDy=0;" parent="1" source="3gOnY-SJ9KaZzBldq2Iy-42" target="3gOnY-SJ9KaZzBldq2Iy-57" edge="1">
          <mxGeometry relative="1" as="geometry">
            <mxPoint x="-1750" y="1415.6399999999999" as="sourcePoint" />
            <mxPoint x="-1720" y="1464.6399999999999" as="targetPoint" />
            <Array as="points" />
          </mxGeometry>
        </mxCell>
        <mxCell id="3gOnY-SJ9KaZzBldq2Iy-53" value="" style="endArrow=none;html=1;rounded=0;exitX=0;exitY=0.5;exitDx=0;exitDy=0;" parent="1" source="3gOnY-SJ9KaZzBldq2Iy-50" edge="1">
          <mxGeometry relative="1" as="geometry">
            <mxPoint x="-773.31" y="945.9999999999999" as="sourcePoint" />
            <mxPoint x="-833.31" y="945.9999999999999" as="targetPoint" />
            <Array as="points" />
          </mxGeometry>
        </mxCell>
        <mxCell id="3gOnY-SJ9KaZzBldq2Iy-54" style="edgeStyle=orthogonalEdgeStyle;rounded=0;orthogonalLoop=1;jettySize=auto;html=1;exitX=0.5;exitY=1;exitDx=0;exitDy=0;" parent="1" source="3gOnY-SJ9KaZzBldq2Iy-48" target="3gOnY-SJ9KaZzBldq2Iy-48" edge="1">
          <mxGeometry relative="1" as="geometry" />
        </mxCell>
        <mxCell id="3gOnY-SJ9KaZzBldq2Iy-55" value="" style="endArrow=none;html=1;rounded=0;exitX=0;exitY=0.5;exitDx=0;exitDy=0;entryX=1;entryY=0.5;entryDx=0;entryDy=0;" parent="1" source="3gOnY-SJ9KaZzBldq2Iy-56" target="3gOnY-SJ9KaZzBldq2Iy-46" edge="1">
          <mxGeometry relative="1" as="geometry">
            <mxPoint x="-1375" y="1422.14" as="sourcePoint" />
            <mxPoint x="-1335" y="1426.14" as="targetPoint" />
            <Array as="points" />
          </mxGeometry>
        </mxCell>
        <mxCell id="3gOnY-SJ9KaZzBldq2Iy-56" value="id_transporte" style="ellipse;whiteSpace=wrap;html=1;align=center;" parent="1" vertex="1">
          <mxGeometry x="-780" y="890.0000000000001" width="100" height="41" as="geometry" />
        </mxCell>
        <mxCell id="3gOnY-SJ9KaZzBldq2Iy-57" value="Hotel" style="whiteSpace=wrap;html=1;align=center;" parent="1" vertex="1">
          <mxGeometry x="-1325" y="964.6400000000001" width="110" height="40" as="geometry" />
        </mxCell>
        <mxCell id="3gOnY-SJ9KaZzBldq2Iy-88" value="&lt;li data-start=&quot;416&quot; data-end=&quot;493&quot;&gt;&lt;br&gt;&lt;/li&gt;" style="text;whiteSpace=wrap;html=1;" parent="1" vertex="1">
          <mxGeometry x="760" y="1127.5" width="660" height="500" as="geometry" />
        </mxCell>
        <mxCell id="3gOnY-SJ9KaZzBldq2Iy-89" value="ITINERARIO" style="whiteSpace=wrap;html=1;align=center;" parent="1" vertex="1">
          <mxGeometry x="-936.69" y="752" width="100" height="40" as="geometry" />
        </mxCell>
        <mxCell id="3gOnY-SJ9KaZzBldq2Iy-90" value="fechaInicio" style="ellipse;whiteSpace=wrap;html=1;align=center;" parent="1" vertex="1">
          <mxGeometry x="-806.69" y="691" width="100" height="40" as="geometry" />
        </mxCell>
        <mxCell id="78p2jivuX4t5pEVkYKNS-1" value="fechaFin" style="ellipse;whiteSpace=wrap;html=1;align=center;" parent="1" vertex="1">
          <mxGeometry x="-796.69" y="740.5" width="100" height="40" as="geometry" />
        </mxCell>
        <mxCell id="78p2jivuX4t5pEVkYKNS-5" value="id_itinerario" style="ellipse;whiteSpace=wrap;html=1;align=center;fontStyle=4;" parent="1" vertex="1">
          <mxGeometry x="-806.69" y="630.5" width="100" height="40" as="geometry" />
        </mxCell>
        <mxCell id="78p2jivuX4t5pEVkYKNS-6" value="id_paquete_fk" style="ellipse;whiteSpace=wrap;html=1;align=center;fontStyle=4;" parent="1" vertex="1">
          <mxGeometry x="-806.69" y="800.5" width="100" height="40" as="geometry" />
        </mxCell>
        <mxCell id="78p2jivuX4t5pEVkYKNS-7" value="" style="endArrow=none;html=1;rounded=0;exitX=1;exitY=0.75;exitDx=0;exitDy=0;entryX=0;entryY=0.5;entryDx=0;entryDy=0;" parent="1" source="3gOnY-SJ9KaZzBldq2Iy-89" target="78p2jivuX4t5pEVkYKNS-6" edge="1">
          <mxGeometry relative="1" as="geometry">
            <mxPoint x="-976.69" y="885" as="sourcePoint" />
            <mxPoint x="-816.69" y="885" as="targetPoint" />
          </mxGeometry>
        </mxCell>
        <mxCell id="78p2jivuX4t5pEVkYKNS-8" value="" style="endArrow=none;html=1;rounded=0;exitX=1;exitY=0.75;exitDx=0;exitDy=0;entryX=0;entryY=0.5;entryDx=0;entryDy=0;" parent="1" source="3gOnY-SJ9KaZzBldq2Iy-89" target="78p2jivuX4t5pEVkYKNS-1" edge="1">
          <mxGeometry relative="1" as="geometry">
            <mxPoint x="-826.69" y="792" as="sourcePoint" />
            <mxPoint x="-776.69" y="925" as="targetPoint" />
          </mxGeometry>
        </mxCell>
        <mxCell id="78p2jivuX4t5pEVkYKNS-9" value="" style="endArrow=none;html=1;rounded=0;exitX=1;exitY=0.5;exitDx=0;exitDy=0;entryX=0;entryY=0.5;entryDx=0;entryDy=0;" parent="1" source="3gOnY-SJ9KaZzBldq2Iy-89" target="3gOnY-SJ9KaZzBldq2Iy-90" edge="1">
          <mxGeometry relative="1" as="geometry">
            <mxPoint x="-816.69" y="735" as="sourcePoint" />
            <mxPoint x="-766.69" y="788" as="targetPoint" />
          </mxGeometry>
        </mxCell>
        <mxCell id="78p2jivuX4t5pEVkYKNS-10" value="" style="endArrow=none;html=1;rounded=0;exitX=1;exitY=0;exitDx=0;exitDy=0;entryX=0;entryY=0.5;entryDx=0;entryDy=0;" parent="1" source="3gOnY-SJ9KaZzBldq2Iy-89" target="78p2jivuX4t5pEVkYKNS-5" edge="1">
          <mxGeometry relative="1" as="geometry">
            <mxPoint x="-826.69" y="782" as="sourcePoint" />
            <mxPoint x="-776.69" y="775" as="targetPoint" />
          </mxGeometry>
        </mxCell>
        <mxCell id="78p2jivuX4t5pEVkYKNS-11" value="ACTIVIDAD" style="whiteSpace=wrap;html=1;align=center;" parent="1" vertex="1">
          <mxGeometry x="-1120" y="864.6400000000001" width="110" height="40" as="geometry" />
        </mxCell>
        <mxCell id="78p2jivuX4t5pEVkYKNS-12" value="descripciÃ³n&lt;span style=&quot;color: rgba(0, 0, 0, 0); font-family: monospace; font-size: 0px; text-align: start; text-wrap-mode: nowrap;&quot;&gt;%3CmxGraphModel%3E%3Croot%3E%3CmxCell%20id%3D%220%22%2F%3E%3CmxCell%20id%3D%221%22%20parent%3D%220%22%2F%3E%3CmxCell%20id%3D%222%22%20value%3D%22id_itinerario%22%20style%3D%22ellipse%3BwhiteSpace%3Dwrap%3Bhtml%3D1%3Balign%3Dcenter%3BfontStyle%3D4%3B%22%20vertex%3D%221%22%20parent%3D%221%22%3E%3CmxGeometry%20x%3D%22330%22%20y%3D%221271%22%20width%3D%22100%22%20height%3D%2240%22%20as%3D%22geometry%22%2F%3E%3C%2FmxCell%3E%3C%2Froot%3E%3C%2FmxGraphModel%3E&lt;/span&gt;" style="ellipse;whiteSpace=wrap;html=1;align=center;" parent="1" vertex="1">
          <mxGeometry x="-1160" y="1090.0000000000002" width="100" height="41" as="geometry" />
        </mxCell>
        <mxCell id="78p2jivuX4t5pEVkYKNS-13" value="" style="endArrow=none;html=1;rounded=0;entryX=0.401;entryY=1.011;entryDx=0;entryDy=0;exitX=1;exitY=0;exitDx=0;exitDy=0;entryPerimeter=0;" parent="1" source="78p2jivuX4t5pEVkYKNS-12" target="78p2jivuX4t5pEVkYKNS-11" edge="1">
          <mxGeometry relative="1" as="geometry">
            <mxPoint x="-1115.0000000000002" y="1041.2800000000002" as="sourcePoint" />
            <mxPoint x="-1465" y="1520.2800000000002" as="targetPoint" />
            <Array as="points" />
          </mxGeometry>
        </mxCell>
        <mxCell id="78p2jivuX4t5pEVkYKNS-14" value="nombre" style="ellipse;whiteSpace=wrap;html=1;align=center;" parent="1" vertex="1">
          <mxGeometry x="-1223.34" y="1050" width="110" height="40" as="geometry" />
        </mxCell>
        <mxCell id="78p2jivuX4t5pEVkYKNS-15" value="" style="endArrow=none;html=1;rounded=0;exitX=1;exitY=0.5;exitDx=0;exitDy=0;entryX=0.168;entryY=0.975;entryDx=0;entryDy=0;entryPerimeter=0;" parent="1" source="78p2jivuX4t5pEVkYKNS-14" target="78p2jivuX4t5pEVkYKNS-11" edge="1">
          <mxGeometry relative="1" as="geometry">
            <mxPoint x="-1515" y="1381.2800000000002" as="sourcePoint" />
            <mxPoint x="-1485" y="1430.2800000000002" as="targetPoint" />
            <Array as="points" />
          </mxGeometry>
        </mxCell>
        <mxCell id="78p2jivuX4t5pEVkYKNS-16" style="edgeStyle=orthogonalEdgeStyle;rounded=0;orthogonalLoop=1;jettySize=auto;html=1;exitX=0.5;exitY=1;exitDx=0;exitDy=0;" parent="1" source="78p2jivuX4t5pEVkYKNS-12" target="78p2jivuX4t5pEVkYKNS-12" edge="1">
          <mxGeometry relative="1" as="geometry" />
        </mxCell>
        <mxCell id="78p2jivuX4t5pEVkYKNS-17" value="" style="endArrow=none;html=1;rounded=0;entryX=0;entryY=0.25;entryDx=0;entryDy=0;exitX=0.5;exitY=0;exitDx=0;exitDy=0;" parent="1" source="78p2jivuX4t5pEVkYKNS-19" target="78p2jivuX4t5pEVkYKNS-11" edge="1">
          <mxGeometry relative="1" as="geometry">
            <mxPoint x="-1065" y="990.2800000000001" as="sourcePoint" />
            <mxPoint x="-1455" y="1520.2800000000002" as="targetPoint" />
            <Array as="points" />
          </mxGeometry>
        </mxCell>
        <mxCell id="78p2jivuX4t5pEVkYKNS-19" value="id actividad" style="ellipse;whiteSpace=wrap;html=1;align=center;fontStyle=4;" parent="1" vertex="1">
          <mxGeometry x="-1218.34" y="999.9999999999999" width="100" height="40" as="geometry" />
        </mxCell>
        <mxCell id="78p2jivuX4t5pEVkYKNS-21" value="costo" style="ellipse;whiteSpace=wrap;html=1;align=center;" parent="1" vertex="1">
          <mxGeometry x="-1081.69" y="1128" width="100" height="41" as="geometry" />
        </mxCell>
        <mxCell id="78p2jivuX4t5pEVkYKNS-22" value="id_paquete_fk" style="ellipse;whiteSpace=wrap;html=1;align=center;fontStyle=4;" parent="1" vertex="1">
          <mxGeometry x="-989.9999999999999" y="1040" width="88.31" height="40" as="geometry" />
        </mxCell>
        <mxCell id="78p2jivuX4t5pEVkYKNS-23" value="" style="endArrow=none;html=1;rounded=0;entryX=0.5;entryY=1;entryDx=0;entryDy=0;exitX=1;exitY=0;exitDx=0;exitDy=0;" parent="1" source="78p2jivuX4t5pEVkYKNS-21" target="78p2jivuX4t5pEVkYKNS-11" edge="1">
          <mxGeometry relative="1" as="geometry">
            <mxPoint x="-1105.0000000000002" y="1051.2800000000002" as="sourcePoint" />
            <mxPoint x="-1050" y="1041.2800000000002" as="targetPoint" />
            <Array as="points" />
          </mxGeometry>
        </mxCell>
        <mxCell id="78p2jivuX4t5pEVkYKNS-24" value="" style="endArrow=none;html=1;rounded=0;entryX=0.75;entryY=1;entryDx=0;entryDy=0;exitX=1;exitY=0;exitDx=0;exitDy=0;" parent="1" source="78p2jivuX4t5pEVkYKNS-22" target="78p2jivuX4t5pEVkYKNS-11" edge="1">
          <mxGeometry relative="1" as="geometry">
            <mxPoint x="-1109.0000000000002" y="1094.2800000000002" as="sourcePoint" />
            <mxPoint x="-1050" y="1041.2800000000002" as="targetPoint" />
            <Array as="points" />
          </mxGeometry>
        </mxCell>
        <mxCell id="78p2jivuX4t5pEVkYKNS-25" value="RESERVA" style="whiteSpace=wrap;html=1;align=center;" parent="1" vertex="1">
          <mxGeometry x="-780" y="-60" width="100" height="40" as="geometry" />
        </mxCell>
        <mxCell id="78p2jivuX4t5pEVkYKNS-27" value="estado" style="ellipse;whiteSpace=wrap;html=1;align=center;" parent="1" vertex="1">
          <mxGeometry x="-770" y="-180" width="100" height="40" as="geometry" />
        </mxCell>
        <mxCell id="78p2jivuX4t5pEVkYKNS-28" value="id reserva" style="ellipse;whiteSpace=wrap;html=1;align=center;fontStyle=4;" parent="1" vertex="1">
          <mxGeometry x="-940" y="-65.5" width="100" height="40" as="geometry" />
        </mxCell>
        <mxCell id="78p2jivuX4t5pEVkYKNS-29" value="id_paquete_fk" style="ellipse;whiteSpace=wrap;html=1;align=center;fontStyle=4;" parent="1" vertex="1">
          <mxGeometry x="-880" y="-190" width="100" height="40" as="geometry" />
        </mxCell>
        <mxCell id="78p2jivuX4t5pEVkYKNS-34" value="id usuario fk" style="ellipse;whiteSpace=wrap;html=1;align=center;fontStyle=4;" parent="1" vertex="1">
          <mxGeometry x="-940" y="-130" width="100" height="40" as="geometry" />
        </mxCell>
        <mxCell id="78p2jivuX4t5pEVkYKNS-35" value="fecha" style="ellipse;whiteSpace=wrap;html=1;align=center;" parent="1" vertex="1">
          <mxGeometry x="-696.69" y="-130" width="100" height="40" as="geometry" />
        </mxCell>
        <mxCell id="9aNU_xdPiNiD2xK2AiHW-2" value="PAGO" style="whiteSpace=wrap;html=1;align=center;" parent="1" vertex="1">
          <mxGeometry x="-354.5" y="-60" width="100" height="40" as="geometry" />
        </mxCell>
        <mxCell id="9aNU_xdPiNiD2xK2AiHW-3" value="id pago" style="ellipse;whiteSpace=wrap;html=1;align=center;fontStyle=4;" parent="1" vertex="1">
          <mxGeometry x="-254.5" y="-180.00000000000006" width="100" height="40" as="geometry" />
        </mxCell>
        <mxCell id="9aNU_xdPiNiD2xK2AiHW-5" value="id reserva fk" style="ellipse;whiteSpace=wrap;html=1;align=center;fontStyle=4;" parent="1" vertex="1">
          <mxGeometry x="-144.5" y="-163" width="100" height="40" as="geometry" />
        </mxCell>
        <mxCell id="Bhe1yqO_CbG-_Yvj0v-C-1" value="monto" style="ellipse;whiteSpace=wrap;html=1;align=center;" parent="1" vertex="1">
          <mxGeometry x="-144.5" y="-95.5" width="100" height="40" as="geometry" />
        </mxCell>
        <mxCell id="Bhe1yqO_CbG-_Yvj0v-C-2" value="metodoPago" style="ellipse;whiteSpace=wrap;html=1;align=center;" parent="1" vertex="1">
          <mxGeometry x="-144.5" y="-25.5" width="100" height="40" as="geometry" />
        </mxCell>
        <mxCell id="Bhe1yqO_CbG-_Yvj0v-C-3" value="estado" style="ellipse;whiteSpace=wrap;html=1;align=center;" parent="1" vertex="1">
          <mxGeometry x="-234.5" y="84.5" width="100" height="40" as="geometry" />
        </mxCell>
        <mxCell id="Bhe1yqO_CbG-_Yvj0v-C-4" value="fecha" style="ellipse;whiteSpace=wrap;html=1;align=center;" parent="1" vertex="1">
          <mxGeometry x="-164.5" y="28.5" width="100" height="40" as="geometry" />
        </mxCell>
        <mxCell id="Bhe1yqO_CbG-_Yvj0v-C-5" value="" style="endArrow=none;html=1;rounded=0;entryX=0;entryY=0.5;entryDx=0;entryDy=0;exitX=1;exitY=0;exitDx=0;exitDy=0;" parent="1" source="9aNU_xdPiNiD2xK2AiHW-2" target="9aNU_xdPiNiD2xK2AiHW-3" edge="1">
          <mxGeometry relative="1" as="geometry">
            <mxPoint x="-494.5" y="94.5" as="sourcePoint" />
            <mxPoint x="-334.5" y="94.5" as="targetPoint" />
          </mxGeometry>
        </mxCell>
        <mxCell id="Bhe1yqO_CbG-_Yvj0v-C-6" value="" style="endArrow=none;html=1;rounded=0;exitX=1;exitY=0;exitDx=0;exitDy=0;entryX=0;entryY=0.5;entryDx=0;entryDy=0;" parent="1" source="9aNU_xdPiNiD2xK2AiHW-2" target="9aNU_xdPiNiD2xK2AiHW-5" edge="1">
          <mxGeometry relative="1" as="geometry">
            <mxPoint x="-184.5" y="-67.5" as="sourcePoint" />
            <mxPoint x="-164.5" y="-115.5" as="targetPoint" />
          </mxGeometry>
        </mxCell>
        <mxCell id="Bhe1yqO_CbG-_Yvj0v-C-7" value="" style="endArrow=none;html=1;rounded=0;exitX=1;exitY=0.5;exitDx=0;exitDy=0;entryX=0;entryY=0.5;entryDx=0;entryDy=0;" parent="1" source="9aNU_xdPiNiD2xK2AiHW-2" target="Bhe1yqO_CbG-_Yvj0v-C-1" edge="1">
          <mxGeometry relative="1" as="geometry">
            <mxPoint x="-184.5" y="-67.5" as="sourcePoint" />
            <mxPoint x="-154.5" y="-105.5" as="targetPoint" />
          </mxGeometry>
        </mxCell>
        <mxCell id="Bhe1yqO_CbG-_Yvj0v-C-10" value="" style="endArrow=none;html=1;rounded=0;exitX=1;exitY=0.75;exitDx=0;exitDy=0;entryX=0;entryY=0.5;entryDx=0;entryDy=0;" parent="1" source="9aNU_xdPiNiD2xK2AiHW-2" target="Bhe1yqO_CbG-_Yvj0v-C-2" edge="1">
          <mxGeometry relative="1" as="geometry">
            <mxPoint x="-174.5" y="-57.5" as="sourcePoint" />
            <mxPoint x="-144.5" y="-95.5" as="targetPoint" />
          </mxGeometry>
        </mxCell>
        <mxCell id="Bhe1yqO_CbG-_Yvj0v-C-11" value="" style="endArrow=none;html=1;rounded=0;exitX=1;exitY=0.75;exitDx=0;exitDy=0;entryX=0;entryY=0.5;entryDx=0;entryDy=0;" parent="1" source="9aNU_xdPiNiD2xK2AiHW-2" target="Bhe1yqO_CbG-_Yvj0v-C-4" edge="1">
          <mxGeometry relative="1" as="geometry">
            <mxPoint x="-244.5" y="-25.5" as="sourcePoint" />
            <mxPoint x="-134.5" y="4.5" as="targetPoint" />
          </mxGeometry>
        </mxCell>
        <mxCell id="Bhe1yqO_CbG-_Yvj0v-C-12" value="" style="endArrow=none;html=1;rounded=0;exitX=1;exitY=0.75;exitDx=0;exitDy=0;entryX=0.327;entryY=0;entryDx=0;entryDy=0;entryPerimeter=0;" parent="1" source="9aNU_xdPiNiD2xK2AiHW-2" target="Bhe1yqO_CbG-_Yvj0v-C-3" edge="1">
          <mxGeometry relative="1" as="geometry">
            <mxPoint x="-244.5" y="-25.5" as="sourcePoint" />
            <mxPoint x="-154.5" y="58.5" as="targetPoint" />
          </mxGeometry>
        </mxCell>
        <mxCell id="NnsvJvGcKSQWKejKRMly-2" value="contenido&lt;br&gt;paquete&lt;div&gt;&lt;/div&gt;" style="strokeWidth=2;html=1;shape=mxgraph.flowchart.extract_or_measurement;whiteSpace=wrap;" parent="1" vertex="1">
          <mxGeometry x="-1120" y="600" width="130" height="69.5" as="geometry" />
        </mxCell>
        <mxCell id="NnsvJvGcKSQWKejKRMly-3" value="" style="endArrow=none;html=1;rounded=0;entryX=0.5;entryY=0;entryDx=0;entryDy=0;exitX=0.5;exitY=1;exitDx=0;exitDy=0;exitPerimeter=0;" parent="1" source="NnsvJvGcKSQWKejKRMly-2" target="78p2jivuX4t5pEVkYKNS-11" edge="1">
          <mxGeometry relative="1" as="geometry">
            <mxPoint x="-730" y="1000" as="sourcePoint" />
            <mxPoint x="-570" y="1000" as="targetPoint" />
          </mxGeometry>
        </mxCell>
        <mxCell id="NnsvJvGcKSQWKejKRMly-4" value="" style="endArrow=none;html=1;rounded=0;entryX=1;entryY=0;entryDx=0;entryDy=0;exitX=0.284;exitY=0.965;exitDx=0;exitDy=0;exitPerimeter=0;" parent="1" source="NnsvJvGcKSQWKejKRMly-2" target="3gOnY-SJ9KaZzBldq2Iy-57" edge="1">
          <mxGeometry relative="1" as="geometry">
            <mxPoint x="-1062" y="679" as="sourcePoint" />
            <mxPoint x="-1044" y="1116" as="targetPoint" />
          </mxGeometry>
        </mxCell>
        <mxCell id="NnsvJvGcKSQWKejKRMly-5" value="" style="endArrow=none;html=1;rounded=0;entryX=1;entryY=0.25;entryDx=0;entryDy=0;exitX=0.01;exitY=0.97;exitDx=0;exitDy=0;exitPerimeter=0;" parent="1" source="NnsvJvGcKSQWKejKRMly-2" target="3gOnY-SJ9KaZzBldq2Iy-34" edge="1">
          <mxGeometry relative="1" as="geometry">
            <mxPoint x="-1083" y="677" as="sourcePoint" />
            <mxPoint x="-1205" y="975" as="targetPoint" />
          </mxGeometry>
        </mxCell>
        <mxCell id="NnsvJvGcKSQWKejKRMly-6" value="" style="endArrow=none;html=1;rounded=0;entryX=0;entryY=0.25;entryDx=0;entryDy=0;exitX=0.99;exitY=0.97;exitDx=0;exitDy=0;exitPerimeter=0;" parent="1" source="NnsvJvGcKSQWKejKRMly-2" target="3gOnY-SJ9KaZzBldq2Iy-89" edge="1">
          <mxGeometry relative="1" as="geometry">
            <mxPoint x="-1109" y="678" as="sourcePoint" />
            <mxPoint x="-1213" y="769" as="targetPoint" />
          </mxGeometry>
        </mxCell>
        <mxCell id="NnsvJvGcKSQWKejKRMly-7" value="" style="endArrow=none;html=1;rounded=0;entryX=0;entryY=0;entryDx=0;entryDy=0;exitX=0.811;exitY=1.013;exitDx=0;exitDy=0;exitPerimeter=0;" parent="1" source="NnsvJvGcKSQWKejKRMly-2" target="3gOnY-SJ9KaZzBldq2Iy-46" edge="1">
          <mxGeometry relative="1" as="geometry">
            <mxPoint x="-1026.19" y="780.5" as="sourcePoint" />
            <mxPoint x="-937.19" y="874.5" as="targetPoint" />
          </mxGeometry>
        </mxCell>
        <mxCell id="NnsvJvGcKSQWKejKRMly-8" value="" style="endArrow=none;html=1;rounded=0;exitX=0.5;exitY=1;exitDx=0;exitDy=0;entryX=0.5;entryY=0;entryDx=0;entryDy=0;entryPerimeter=0;" parent="1" source="3gOnY-SJ9KaZzBldq2Iy-23" target="NnsvJvGcKSQWKejKRMly-2" edge="1">
          <mxGeometry relative="1" as="geometry">
            <mxPoint x="-960" y="540" as="sourcePoint" />
            <mxPoint x="-800" y="540" as="targetPoint" />
          </mxGeometry>
        </mxCell>
        <mxCell id="NnsvJvGcKSQWKejKRMly-25" value="reservas" style="strokeWidth=2;html=1;shape=mxgraph.flowchart.extract_or_measurement;whiteSpace=wrap;" parent="1" vertex="1">
          <mxGeometry x="-780" y="100" width="95" height="80" as="geometry" />
        </mxCell>
        <mxCell id="NnsvJvGcKSQWKejKRMly-26" value="" style="endArrow=none;html=1;rounded=0;exitX=0.5;exitY=0;exitDx=0;exitDy=0;entryX=0.179;entryY=0.998;entryDx=0;entryDy=0;entryPerimeter=0;" parent="1" source="3gOnY-SJ9KaZzBldq2Iy-23" target="NnsvJvGcKSQWKejKRMly-25" edge="1">
          <mxGeometry relative="1" as="geometry">
            <mxPoint x="-540" y="320" as="sourcePoint" />
            <mxPoint x="-380" y="320" as="targetPoint" />
          </mxGeometry>
        </mxCell>
        <mxCell id="NnsvJvGcKSQWKejKRMly-29" value="" style="endArrow=none;html=1;rounded=0;exitX=1;exitY=0.25;exitDx=0;exitDy=0;entryX=0.69;entryY=0.974;entryDx=0;entryDy=0;entryPerimeter=0;" parent="1" target="NnsvJvGcKSQWKejKRMly-25" edge="1">
          <mxGeometry relative="1" as="geometry">
            <mxPoint x="-404.5" y="420.5" as="sourcePoint" />
            <mxPoint x="-753" y="170" as="targetPoint" />
          </mxGeometry>
        </mxCell>
        <mxCell id="NnsvJvGcKSQWKejKRMly-30" value="" style="endArrow=none;html=1;rounded=0;exitX=0.5;exitY=1;exitDx=0;exitDy=0;entryX=0.5;entryY=0;entryDx=0;entryDy=0;entryPerimeter=0;" parent="1" source="78p2jivuX4t5pEVkYKNS-25" target="NnsvJvGcKSQWKejKRMly-25" edge="1">
          <mxGeometry relative="1" as="geometry">
            <mxPoint x="-540" y="320" as="sourcePoint" />
            <mxPoint x="-380" y="320" as="targetPoint" />
          </mxGeometry>
        </mxCell>
        <mxCell id="NnsvJvGcKSQWKejKRMly-31" value="pago&amp;nbsp;&lt;br&gt;resereva" style="shape=rhombus;perimeter=rhombusPerimeter;whiteSpace=wrap;html=1;align=center;" parent="1" vertex="1">
          <mxGeometry x="-560" y="-70" width="120" height="60" as="geometry" />
        </mxCell>
        <mxCell id="NnsvJvGcKSQWKejKRMly-33" value="" style="endArrow=none;html=1;rounded=0;exitX=1;exitY=0.5;exitDx=0;exitDy=0;entryX=0;entryY=0.5;entryDx=0;entryDy=0;" parent="1" source="78p2jivuX4t5pEVkYKNS-25" target="NnsvJvGcKSQWKejKRMly-31" edge="1">
          <mxGeometry relative="1" as="geometry">
            <mxPoint x="-540" y="30" as="sourcePoint" />
            <mxPoint x="-380" y="30" as="targetPoint" />
          </mxGeometry>
        </mxCell>
        <mxCell id="NnsvJvGcKSQWKejKRMly-34" value="" style="endArrow=none;html=1;rounded=0;exitX=1;exitY=0.5;exitDx=0;exitDy=0;entryX=0;entryY=0.5;entryDx=0;entryDy=0;" parent="1" source="NnsvJvGcKSQWKejKRMly-31" target="9aNU_xdPiNiD2xK2AiHW-2" edge="1">
          <mxGeometry relative="1" as="geometry">
            <mxPoint x="-430" y="20" as="sourcePoint" />
            <mxPoint x="-310" y="20" as="targetPoint" />
          </mxGeometry>
        </mxCell>
        <mxCell id="NnsvJvGcKSQWKejKRMly-35" value="sugerencias" style="shape=rhombus;perimeter=rhombusPerimeter;whiteSpace=wrap;html=1;align=center;" parent="1" vertex="1">
          <mxGeometry x="-419" y="585" width="120" height="60" as="geometry" />
        </mxCell>
        <mxCell id="NnsvJvGcKSQWKejKRMly-36" value="" style="endArrow=none;html=1;rounded=0;exitX=1;exitY=0.5;exitDx=0;exitDy=0;entryX=0;entryY=0.5;entryDx=0;entryDy=0;" parent="1" source="78p2jivuX4t5pEVkYKNS-28" target="78p2jivuX4t5pEVkYKNS-25" edge="1">
          <mxGeometry relative="1" as="geometry">
            <mxPoint x="-920" y="-25.5" as="sourcePoint" />
            <mxPoint x="-760" y="-25.5" as="targetPoint" />
          </mxGeometry>
        </mxCell>
        <mxCell id="NnsvJvGcKSQWKejKRMly-37" value="" style="endArrow=none;html=1;rounded=0;exitX=1;exitY=0.5;exitDx=0;exitDy=0;entryX=0;entryY=0;entryDx=0;entryDy=0;" parent="1" source="78p2jivuX4t5pEVkYKNS-34" target="78p2jivuX4t5pEVkYKNS-25" edge="1">
          <mxGeometry relative="1" as="geometry">
            <mxPoint x="-910" y="-65" as="sourcePoint" />
            <mxPoint x="-770" y="-30" as="targetPoint" />
          </mxGeometry>
        </mxCell>
        <mxCell id="NnsvJvGcKSQWKejKRMly-38" value="" style="endArrow=none;html=1;rounded=0;exitX=0.5;exitY=1;exitDx=0;exitDy=0;entryX=0.25;entryY=0;entryDx=0;entryDy=0;" parent="1" source="78p2jivuX4t5pEVkYKNS-29" target="78p2jivuX4t5pEVkYKNS-25" edge="1">
          <mxGeometry relative="1" as="geometry">
            <mxPoint x="-872" y="-140" as="sourcePoint" />
            <mxPoint x="-770" y="-50" as="targetPoint" />
          </mxGeometry>
        </mxCell>
        <mxCell id="NnsvJvGcKSQWKejKRMly-39" value="" style="endArrow=none;html=1;rounded=0;exitX=0.5;exitY=1;exitDx=0;exitDy=0;entryX=0.5;entryY=0;entryDx=0;entryDy=0;" parent="1" source="78p2jivuX4t5pEVkYKNS-27" target="78p2jivuX4t5pEVkYKNS-25" edge="1">
          <mxGeometry relative="1" as="geometry">
            <mxPoint x="-820" y="-170" as="sourcePoint" />
            <mxPoint x="-745" y="-50" as="targetPoint" />
          </mxGeometry>
        </mxCell>
        <mxCell id="NnsvJvGcKSQWKejKRMly-40" value="" style="endArrow=none;html=1;rounded=0;exitX=0;exitY=1;exitDx=0;exitDy=0;entryX=0.75;entryY=0;entryDx=0;entryDy=0;" parent="1" source="78p2jivuX4t5pEVkYKNS-35" target="78p2jivuX4t5pEVkYKNS-25" edge="1">
          <mxGeometry relative="1" as="geometry">
            <mxPoint x="-700" y="-170" as="sourcePoint" />
            <mxPoint x="-720" y="-50" as="targetPoint" />
          </mxGeometry>
        </mxCell>
        <mxCell id="NnsvJvGcKSQWKejKRMly-41" value="" style="endArrow=none;html=1;rounded=0;exitX=0.5;exitY=0;exitDx=0;exitDy=0;entryX=0.5;entryY=1;entryDx=0;entryDy=0;" parent="1" source="NnsvJvGcKSQWKejKRMly-35" target="3gOnY-SJ9KaZzBldq2Iy-1" edge="1">
          <mxGeometry relative="1" as="geometry">
            <mxPoint x="-540" y="460" as="sourcePoint" />
            <mxPoint x="-380" y="460" as="targetPoint" />
          </mxGeometry>
        </mxCell>
        <mxCell id="NnsvJvGcKSQWKejKRMly-42" value="" style="endArrow=none;html=1;rounded=0;exitX=0.75;exitY=0;exitDx=0;exitDy=0;entryX=0.5;entryY=1;entryDx=0;entryDy=0;" parent="1" source="3gOnY-SJ9KaZzBldq2Iy-14" target="NnsvJvGcKSQWKejKRMly-35" edge="1">
          <mxGeometry relative="1" as="geometry">
            <mxPoint x="-339" y="843.5" as="sourcePoint" />
            <mxPoint x="-350" y="719.5" as="targetPoint" />
          </mxGeometry>
        </mxCell>
        <mxCell id="NnsvJvGcKSQWKejKRMly-43" value="m" style="text;strokeColor=none;align=center;fillColor=none;html=1;verticalAlign=middle;whiteSpace=wrap;rounded=0;" parent="1" vertex="1">
          <mxGeometry x="-1095" y="383" width="60" height="30" as="geometry" />
        </mxCell>
        <mxCell id="NnsvJvGcKSQWKejKRMly-44" value="n" style="text;strokeColor=none;align=center;fillColor=none;html=1;verticalAlign=middle;whiteSpace=wrap;rounded=0;" parent="1" vertex="1">
          <mxGeometry x="-1050" y="386" width="60" height="30" as="geometry" />
        </mxCell>
        <mxCell id="NnsvJvGcKSQWKejKRMly-45" value="m" style="text;strokeColor=none;align=center;fillColor=none;html=1;verticalAlign=middle;whiteSpace=wrap;rounded=0;" parent="1" vertex="1">
          <mxGeometry x="-434.5" y="383" width="60" height="30" as="geometry" />
        </mxCell>
        <mxCell id="NnsvJvGcKSQWKejKRMly-46" value="m" style="text;strokeColor=none;align=center;fillColor=none;html=1;verticalAlign=middle;whiteSpace=wrap;rounded=0;" parent="1" vertex="1">
          <mxGeometry x="-400" y="-40" width="60" height="30" as="geometry" />
        </mxCell>
        <mxCell id="NnsvJvGcKSQWKejKRMly-47" value="1" style="text;strokeColor=none;align=center;fillColor=none;html=1;verticalAlign=middle;whiteSpace=wrap;rounded=0;" parent="1" vertex="1">
          <mxGeometry x="-400" y="-70" width="60" height="30" as="geometry" />
        </mxCell>
        <mxCell id="NnsvJvGcKSQWKejKRMly-48" value="1" style="text;strokeColor=none;align=center;fillColor=none;html=1;verticalAlign=middle;whiteSpace=wrap;rounded=0;" parent="1" vertex="1">
          <mxGeometry x="-696.69" y="-70" width="60" height="30" as="geometry" />
        </mxCell>
        <mxCell id="NnsvJvGcKSQWKejKRMly-49" value="n" style="text;strokeColor=none;align=center;fillColor=none;html=1;verticalAlign=middle;whiteSpace=wrap;rounded=0;" parent="1" vertex="1">
          <mxGeometry x="-696.69" y="-40" width="60" height="30" as="geometry" />
        </mxCell>
        <mxCell id="1nwF-WbMGq7wpmTydVet-1" value="id_paquete_fk" style="ellipse;whiteSpace=wrap;html=1;align=center;fontStyle=4;" vertex="1" parent="1">
          <mxGeometry x="-1450" y="1087.5" width="88.31" height="40" as="geometry" />
        </mxCell>
        <mxCell id="1nwF-WbMGq7wpmTydVet-2" value="" style="endArrow=none;html=1;rounded=0;exitX=1;exitY=0;exitDx=0;exitDy=0;entryX=0;entryY=1;entryDx=0;entryDy=0;" edge="1" parent="1" source="1nwF-WbMGq7wpmTydVet-1" target="3gOnY-SJ9KaZzBldq2Iy-57">
          <mxGeometry relative="1" as="geometry">
            <mxPoint x="-1370" y="1052" as="sourcePoint" />
            <mxPoint x="-1315" y="1015" as="targetPoint" />
            <Array as="points" />
          </mxGeometry>
        </mxCell>
        <mxCell id="1nwF-WbMGq7wpmTydVet-4" value="id_paquete_fk" style="ellipse;whiteSpace=wrap;html=1;align=center;fontStyle=4;" vertex="1" parent="1">
          <mxGeometry x="-1450" y="820" width="88.31" height="40" as="geometry" />
        </mxCell>
        <mxCell id="1nwF-WbMGq7wpmTydVet-5" value="" style="endArrow=none;html=1;rounded=0;exitX=1;exitY=0;exitDx=0;exitDy=0;entryX=0;entryY=1;entryDx=0;entryDy=0;" edge="1" parent="1" source="1nwF-WbMGq7wpmTydVet-4" target="3gOnY-SJ9KaZzBldq2Iy-34">
          <mxGeometry relative="1" as="geometry">
            <mxPoint x="-1060" y="730" as="sourcePoint" />
            <mxPoint x="-900" y="730" as="targetPoint" />
          </mxGeometry>
        </mxCell>
        <mxCell id="1nwF-WbMGq7wpmTydVet-6" value="id_paquete_fk" style="ellipse;whiteSpace=wrap;html=1;align=center;fontStyle=4;" vertex="1" parent="1">
          <mxGeometry x="-806.69" y="1047.5" width="88.31" height="40" as="geometry" />
        </mxCell>
        <mxCell id="1nwF-WbMGq7wpmTydVet-7" value="" style="endArrow=none;html=1;rounded=0;exitX=0.058;exitY=0.13;exitDx=0;exitDy=0;exitPerimeter=0;entryX=1;entryY=0.75;entryDx=0;entryDy=0;" edge="1" parent="1" source="1nwF-WbMGq7wpmTydVet-6" target="3gOnY-SJ9KaZzBldq2Iy-46">
          <mxGeometry relative="1" as="geometry">
            <mxPoint x="-1060" y="730" as="sourcePoint" />
            <mxPoint x="-900" y="730" as="targetPoint" />
          </mxGeometry>
        </mxCell>
      </root>
    </mxGraphModel>
  </diagram>
  <diagram id="9L2wAqZTs4a_yC4GPFhs" name="PÃ¡gina-3">
    <mxGraphModel dx="2514" dy="2087" grid="1" gridSize="10" guides="1" tooltips="1" connect="1" arrows="1" fold="1" page="1" pageScale="1" pageWidth="827" pageHeight="1169" math="0" shadow="0">
      <root>
        <mxCell id="0" />
        <mxCell id="1" parent="0" />
        <mxCell id="JnlNJfmrzM7XuylelDJF-1" value="USUARIO" style="shape=table;startSize=30;container=1;collapsible=1;childLayout=tableLayout;fixedRows=1;rowLines=0;fontStyle=1;align=center;resizeLast=1;html=1;" vertex="1" parent="1">
          <mxGeometry x="210" y="80" width="180" height="240" as="geometry" />
        </mxCell>
        <mxCell id="JnlNJfmrzM7XuylelDJF-2" value="" style="shape=tableRow;horizontal=0;startSize=0;swimlaneHead=0;swimlaneBody=0;fillColor=none;collapsible=0;dropTarget=0;points=[[0,0.5],[1,0.5]];portConstraint=eastwest;top=0;left=0;right=0;bottom=1;" vertex="1" parent="JnlNJfmrzM7XuylelDJF-1">
          <mxGeometry y="30" width="180" height="30" as="geometry" />
        </mxCell>
        <mxCell id="JnlNJfmrzM7XuylelDJF-3" value="PK" style="shape=partialRectangle;connectable=0;fillColor=none;top=0;left=0;bottom=0;right=0;fontStyle=1;overflow=hidden;whiteSpace=wrap;html=1;" vertex="1" parent="JnlNJfmrzM7XuylelDJF-2">
          <mxGeometry width="30" height="30" as="geometry">
            <mxRectangle width="30" height="30" as="alternateBounds" />
          </mxGeometry>
        </mxCell>
        <mxCell id="JnlNJfmrzM7XuylelDJF-4" value="id_usuario" style="shape=partialRectangle;connectable=0;fillColor=none;top=0;left=0;bottom=0;right=0;align=left;spacingLeft=6;fontStyle=5;overflow=hidden;whiteSpace=wrap;html=1;" vertex="1" parent="JnlNJfmrzM7XuylelDJF-2">
          <mxGeometry x="30" width="150" height="30" as="geometry">
            <mxRectangle width="150" height="30" as="alternateBounds" />
          </mxGeometry>
        </mxCell>
        <mxCell id="JnlNJfmrzM7XuylelDJF-5" value="" style="shape=tableRow;horizontal=0;startSize=0;swimlaneHead=0;swimlaneBody=0;fillColor=none;collapsible=0;dropTarget=0;points=[[0,0.5],[1,0.5]];portConstraint=eastwest;top=0;left=0;right=0;bottom=0;" vertex="1" parent="JnlNJfmrzM7XuylelDJF-1">
          <mxGeometry y="60" width="180" height="30" as="geometry" />
        </mxCell>
        <mxCell id="JnlNJfmrzM7XuylelDJF-6" value="" style="shape=partialRectangle;connectable=0;fillColor=none;top=0;left=0;bottom=0;right=0;editable=1;overflow=hidden;whiteSpace=wrap;html=1;" vertex="1" parent="JnlNJfmrzM7XuylelDJF-5">
          <mxGeometry width="30" height="30" as="geometry">
            <mxRectangle width="30" height="30" as="alternateBounds" />
          </mxGeometry>
        </mxCell>
        <mxCell id="JnlNJfmrzM7XuylelDJF-7" value="nombre" style="shape=partialRectangle;connectable=0;fillColor=none;top=0;left=0;bottom=0;right=0;align=left;spacingLeft=6;overflow=hidden;whiteSpace=wrap;html=1;" vertex="1" parent="JnlNJfmrzM7XuylelDJF-5">
          <mxGeometry x="30" width="150" height="30" as="geometry">
            <mxRectangle width="150" height="30" as="alternateBounds" />
          </mxGeometry>
        </mxCell>
        <mxCell id="JnlNJfmrzM7XuylelDJF-8" value="" style="shape=tableRow;horizontal=0;startSize=0;swimlaneHead=0;swimlaneBody=0;fillColor=none;collapsible=0;dropTarget=0;points=[[0,0.5],[1,0.5]];portConstraint=eastwest;top=0;left=0;right=0;bottom=0;" vertex="1" parent="JnlNJfmrzM7XuylelDJF-1">
          <mxGeometry y="90" width="180" height="30" as="geometry" />
        </mxCell>
        <mxCell id="JnlNJfmrzM7XuylelDJF-9" value="" style="shape=partialRectangle;connectable=0;fillColor=none;top=0;left=0;bottom=0;right=0;editable=1;overflow=hidden;whiteSpace=wrap;html=1;" vertex="1" parent="JnlNJfmrzM7XuylelDJF-8">
          <mxGeometry width="30" height="30" as="geometry">
            <mxRectangle width="30" height="30" as="alternateBounds" />
          </mxGeometry>
        </mxCell>
        <mxCell id="JnlNJfmrzM7XuylelDJF-10" value="email" style="shape=partialRectangle;connectable=0;fillColor=none;top=0;left=0;bottom=0;right=0;align=left;spacingLeft=6;overflow=hidden;whiteSpace=wrap;html=1;" vertex="1" parent="JnlNJfmrzM7XuylelDJF-8">
          <mxGeometry x="30" width="150" height="30" as="geometry">
            <mxRectangle width="150" height="30" as="alternateBounds" />
          </mxGeometry>
        </mxCell>
        <mxCell id="JnlNJfmrzM7XuylelDJF-11" value="" style="shape=tableRow;horizontal=0;startSize=0;swimlaneHead=0;swimlaneBody=0;fillColor=none;collapsible=0;dropTarget=0;points=[[0,0.5],[1,0.5]];portConstraint=eastwest;top=0;left=0;right=0;bottom=0;" vertex="1" parent="JnlNJfmrzM7XuylelDJF-1">
          <mxGeometry y="120" width="180" height="30" as="geometry" />
        </mxCell>
        <mxCell id="JnlNJfmrzM7XuylelDJF-12" value="" style="shape=partialRectangle;connectable=0;fillColor=none;top=0;left=0;bottom=0;right=0;editable=1;overflow=hidden;whiteSpace=wrap;html=1;" vertex="1" parent="JnlNJfmrzM7XuylelDJF-11">
          <mxGeometry width="30" height="30" as="geometry">
            <mxRectangle width="30" height="30" as="alternateBounds" />
          </mxGeometry>
        </mxCell>
        <mxCell id="JnlNJfmrzM7XuylelDJF-13" value="presupuesto" style="shape=partialRectangle;connectable=0;fillColor=none;top=0;left=0;bottom=0;right=0;align=left;spacingLeft=6;overflow=hidden;whiteSpace=wrap;html=1;" vertex="1" parent="JnlNJfmrzM7XuylelDJF-11">
          <mxGeometry x="30" width="150" height="30" as="geometry">
            <mxRectangle width="150" height="30" as="alternateBounds" />
          </mxGeometry>
        </mxCell>
        <mxCell id="JnlNJfmrzM7XuylelDJF-14" value="" style="shape=tableRow;horizontal=0;startSize=0;swimlaneHead=0;swimlaneBody=0;fillColor=none;collapsible=0;dropTarget=0;points=[[0,0.5],[1,0.5]];portConstraint=eastwest;top=0;left=0;right=0;bottom=0;" vertex="1" parent="JnlNJfmrzM7XuylelDJF-1">
          <mxGeometry y="150" width="180" height="30" as="geometry" />
        </mxCell>
        <mxCell id="JnlNJfmrzM7XuylelDJF-15" value="" style="shape=partialRectangle;connectable=0;fillColor=none;top=0;left=0;bottom=0;right=0;editable=1;overflow=hidden;whiteSpace=wrap;html=1;" vertex="1" parent="JnlNJfmrzM7XuylelDJF-14">
          <mxGeometry width="30" height="30" as="geometry">
            <mxRectangle width="30" height="30" as="alternateBounds" />
          </mxGeometry>
        </mxCell>
        <mxCell id="JnlNJfmrzM7XuylelDJF-16" value="telÃ©fono" style="shape=partialRectangle;connectable=0;fillColor=none;top=0;left=0;bottom=0;right=0;align=left;spacingLeft=6;overflow=hidden;whiteSpace=wrap;html=1;" vertex="1" parent="JnlNJfmrzM7XuylelDJF-14">
          <mxGeometry x="30" width="150" height="30" as="geometry">
            <mxRectangle width="150" height="30" as="alternateBounds" />
          </mxGeometry>
        </mxCell>
        <mxCell id="JnlNJfmrzM7XuylelDJF-17" value="" style="shape=tableRow;horizontal=0;startSize=0;swimlaneHead=0;swimlaneBody=0;fillColor=none;collapsible=0;dropTarget=0;points=[[0,0.5],[1,0.5]];portConstraint=eastwest;top=0;left=0;right=0;bottom=0;" vertex="1" parent="JnlNJfmrzM7XuylelDJF-1">
          <mxGeometry y="180" width="180" height="30" as="geometry" />
        </mxCell>
        <mxCell id="JnlNJfmrzM7XuylelDJF-18" value="" style="shape=partialRectangle;connectable=0;fillColor=none;top=0;left=0;bottom=0;right=0;editable=1;overflow=hidden;whiteSpace=wrap;html=1;" vertex="1" parent="JnlNJfmrzM7XuylelDJF-17">
          <mxGeometry width="30" height="30" as="geometry">
            <mxRectangle width="30" height="30" as="alternateBounds" />
          </mxGeometry>
        </mxCell>
        <mxCell id="JnlNJfmrzM7XuylelDJF-19" value="estiloVida" style="shape=partialRectangle;connectable=0;fillColor=none;top=0;left=0;bottom=0;right=0;align=left;spacingLeft=6;overflow=hidden;whiteSpace=wrap;html=1;" vertex="1" parent="JnlNJfmrzM7XuylelDJF-17">
          <mxGeometry x="30" width="150" height="30" as="geometry">
            <mxRectangle width="150" height="30" as="alternateBounds" />
          </mxGeometry>
        </mxCell>
        <mxCell id="Fet96C-u9-jvLVX5C48e-4" value="" style="shape=tableRow;horizontal=0;startSize=0;swimlaneHead=0;swimlaneBody=0;fillColor=none;collapsible=0;dropTarget=0;points=[[0,0.5],[1,0.5]];portConstraint=eastwest;top=0;left=0;right=0;bottom=0;" vertex="1" parent="JnlNJfmrzM7XuylelDJF-1">
          <mxGeometry y="210" width="180" height="30" as="geometry" />
        </mxCell>
        <mxCell id="Fet96C-u9-jvLVX5C48e-5" value="" style="shape=partialRectangle;connectable=0;fillColor=none;top=0;left=0;bottom=0;right=0;editable=1;overflow=hidden;whiteSpace=wrap;html=1;" vertex="1" parent="Fet96C-u9-jvLVX5C48e-4">
          <mxGeometry width="30" height="30" as="geometry">
            <mxRectangle width="30" height="30" as="alternateBounds" />
          </mxGeometry>
        </mxCell>
        <mxCell id="Fet96C-u9-jvLVX5C48e-6" value="id_reserva" style="shape=partialRectangle;connectable=0;fillColor=none;top=0;left=0;bottom=0;right=0;align=left;spacingLeft=6;overflow=hidden;whiteSpace=wrap;html=1;" vertex="1" parent="Fet96C-u9-jvLVX5C48e-4">
          <mxGeometry x="30" width="150" height="30" as="geometry">
            <mxRectangle width="150" height="30" as="alternateBounds" />
          </mxGeometry>
        </mxCell>
        <mxCell id="JnlNJfmrzM7XuylelDJF-20" value="SUGERENCIA" style="shape=table;startSize=30;container=1;collapsible=1;childLayout=tableLayout;fixedRows=1;rowLines=0;fontStyle=1;align=center;resizeLast=1;html=1;" vertex="1" parent="1">
          <mxGeometry x="540" y="80" width="180" height="120" as="geometry" />
        </mxCell>
        <mxCell id="JnlNJfmrzM7XuylelDJF-21" value="" style="shape=tableRow;horizontal=0;startSize=0;swimlaneHead=0;swimlaneBody=0;fillColor=none;collapsible=0;dropTarget=0;points=[[0,0.5],[1,0.5]];portConstraint=eastwest;top=0;left=0;right=0;bottom=1;" vertex="1" parent="JnlNJfmrzM7XuylelDJF-20">
          <mxGeometry y="30" width="180" height="30" as="geometry" />
        </mxCell>
        <mxCell id="JnlNJfmrzM7XuylelDJF-22" value="PK" style="shape=partialRectangle;connectable=0;fillColor=none;top=0;left=0;bottom=0;right=0;fontStyle=1;overflow=hidden;whiteSpace=wrap;html=1;" vertex="1" parent="JnlNJfmrzM7XuylelDJF-21">
          <mxGeometry width="30" height="30" as="geometry">
            <mxRectangle width="30" height="30" as="alternateBounds" />
          </mxGeometry>
        </mxCell>
        <mxCell id="JnlNJfmrzM7XuylelDJF-23" value="id_sugerencia" style="shape=partialRectangle;connectable=0;fillColor=none;top=0;left=0;bottom=0;right=0;align=left;spacingLeft=6;fontStyle=5;overflow=hidden;whiteSpace=wrap;html=1;" vertex="1" parent="JnlNJfmrzM7XuylelDJF-21">
          <mxGeometry x="30" width="150" height="30" as="geometry">
            <mxRectangle width="150" height="30" as="alternateBounds" />
          </mxGeometry>
        </mxCell>
        <mxCell id="JnlNJfmrzM7XuylelDJF-24" value="" style="shape=tableRow;horizontal=0;startSize=0;swimlaneHead=0;swimlaneBody=0;fillColor=none;collapsible=0;dropTarget=0;points=[[0,0.5],[1,0.5]];portConstraint=eastwest;top=0;left=0;right=0;bottom=0;" vertex="1" parent="JnlNJfmrzM7XuylelDJF-20">
          <mxGeometry y="60" width="180" height="30" as="geometry" />
        </mxCell>
        <mxCell id="JnlNJfmrzM7XuylelDJF-25" value="" style="shape=partialRectangle;connectable=0;fillColor=none;top=0;left=0;bottom=0;right=0;editable=1;overflow=hidden;whiteSpace=wrap;html=1;" vertex="1" parent="JnlNJfmrzM7XuylelDJF-24">
          <mxGeometry width="30" height="30" as="geometry">
            <mxRectangle width="30" height="30" as="alternateBounds" />
          </mxGeometry>
        </mxCell>
        <mxCell id="JnlNJfmrzM7XuylelDJF-26" value="descripcion" style="shape=partialRectangle;connectable=0;fillColor=none;top=0;left=0;bottom=0;right=0;align=left;spacingLeft=6;overflow=hidden;whiteSpace=wrap;html=1;" vertex="1" parent="JnlNJfmrzM7XuylelDJF-24">
          <mxGeometry x="30" width="150" height="30" as="geometry">
            <mxRectangle width="150" height="30" as="alternateBounds" />
          </mxGeometry>
        </mxCell>
        <mxCell id="JnlNJfmrzM7XuylelDJF-27" value="" style="shape=tableRow;horizontal=0;startSize=0;swimlaneHead=0;swimlaneBody=0;fillColor=none;collapsible=0;dropTarget=0;points=[[0,0.5],[1,0.5]];portConstraint=eastwest;top=0;left=0;right=0;bottom=0;" vertex="1" parent="JnlNJfmrzM7XuylelDJF-20">
          <mxGeometry y="90" width="180" height="30" as="geometry" />
        </mxCell>
        <mxCell id="JnlNJfmrzM7XuylelDJF-28" value="FK" style="shape=partialRectangle;connectable=0;fillColor=none;top=0;left=0;bottom=0;right=0;editable=1;overflow=hidden;whiteSpace=wrap;html=1;" vertex="1" parent="JnlNJfmrzM7XuylelDJF-27">
          <mxGeometry width="30" height="30" as="geometry">
            <mxRectangle width="30" height="30" as="alternateBounds" />
          </mxGeometry>
        </mxCell>
        <mxCell id="JnlNJfmrzM7XuylelDJF-29" value="id_usuario" style="shape=partialRectangle;connectable=0;fillColor=none;top=0;left=0;bottom=0;right=0;align=left;spacingLeft=6;overflow=hidden;whiteSpace=wrap;html=1;" vertex="1" parent="JnlNJfmrzM7XuylelDJF-27">
          <mxGeometry x="30" width="150" height="30" as="geometry">
            <mxRectangle width="150" height="30" as="alternateBounds" />
          </mxGeometry>
        </mxCell>
        <mxCell id="JnlNJfmrzM7XuylelDJF-30" value="PAQUETE" style="shape=table;startSize=30;container=1;collapsible=1;childLayout=tableLayout;fixedRows=1;rowLines=0;fontStyle=1;align=center;resizeLast=1;html=1;" vertex="1" parent="1">
          <mxGeometry x="-140" y="60" width="180" height="180" as="geometry" />
        </mxCell>
        <mxCell id="JnlNJfmrzM7XuylelDJF-31" value="" style="shape=tableRow;horizontal=0;startSize=0;swimlaneHead=0;swimlaneBody=0;fillColor=none;collapsible=0;dropTarget=0;points=[[0,0.5],[1,0.5]];portConstraint=eastwest;top=0;left=0;right=0;bottom=1;" vertex="1" parent="JnlNJfmrzM7XuylelDJF-30">
          <mxGeometry y="30" width="180" height="30" as="geometry" />
        </mxCell>
        <mxCell id="JnlNJfmrzM7XuylelDJF-32" value="PK" style="shape=partialRectangle;connectable=0;fillColor=none;top=0;left=0;bottom=0;right=0;fontStyle=1;overflow=hidden;whiteSpace=wrap;html=1;" vertex="1" parent="JnlNJfmrzM7XuylelDJF-31">
          <mxGeometry width="30" height="30" as="geometry">
            <mxRectangle width="30" height="30" as="alternateBounds" />
          </mxGeometry>
        </mxCell>
        <mxCell id="JnlNJfmrzM7XuylelDJF-33" value="id_paquete" style="shape=partialRectangle;connectable=0;fillColor=none;top=0;left=0;bottom=0;right=0;align=left;spacingLeft=6;fontStyle=5;overflow=hidden;whiteSpace=wrap;html=1;" vertex="1" parent="JnlNJfmrzM7XuylelDJF-31">
          <mxGeometry x="30" width="150" height="30" as="geometry">
            <mxRectangle width="150" height="30" as="alternateBounds" />
          </mxGeometry>
        </mxCell>
        <mxCell id="JnlNJfmrzM7XuylelDJF-34" value="" style="shape=tableRow;horizontal=0;startSize=0;swimlaneHead=0;swimlaneBody=0;fillColor=none;collapsible=0;dropTarget=0;points=[[0,0.5],[1,0.5]];portConstraint=eastwest;top=0;left=0;right=0;bottom=0;" vertex="1" parent="JnlNJfmrzM7XuylelDJF-30">
          <mxGeometry y="60" width="180" height="30" as="geometry" />
        </mxCell>
        <mxCell id="JnlNJfmrzM7XuylelDJF-35" value="" style="shape=partialRectangle;connectable=0;fillColor=none;top=0;left=0;bottom=0;right=0;editable=1;overflow=hidden;whiteSpace=wrap;html=1;" vertex="1" parent="JnlNJfmrzM7XuylelDJF-34">
          <mxGeometry width="30" height="30" as="geometry">
            <mxRectangle width="30" height="30" as="alternateBounds" />
          </mxGeometry>
        </mxCell>
        <mxCell id="JnlNJfmrzM7XuylelDJF-36" value="nombrePaqute" style="shape=partialRectangle;connectable=0;fillColor=none;top=0;left=0;bottom=0;right=0;align=left;spacingLeft=6;overflow=hidden;whiteSpace=wrap;html=1;" vertex="1" parent="JnlNJfmrzM7XuylelDJF-34">
          <mxGeometry x="30" width="150" height="30" as="geometry">
            <mxRectangle width="150" height="30" as="alternateBounds" />
          </mxGeometry>
        </mxCell>
        <mxCell id="JnlNJfmrzM7XuylelDJF-37" value="" style="shape=tableRow;horizontal=0;startSize=0;swimlaneHead=0;swimlaneBody=0;fillColor=none;collapsible=0;dropTarget=0;points=[[0,0.5],[1,0.5]];portConstraint=eastwest;top=0;left=0;right=0;bottom=0;" vertex="1" parent="JnlNJfmrzM7XuylelDJF-30">
          <mxGeometry y="90" width="180" height="30" as="geometry" />
        </mxCell>
        <mxCell id="JnlNJfmrzM7XuylelDJF-38" value="" style="shape=partialRectangle;connectable=0;fillColor=none;top=0;left=0;bottom=0;right=0;editable=1;overflow=hidden;whiteSpace=wrap;html=1;" vertex="1" parent="JnlNJfmrzM7XuylelDJF-37">
          <mxGeometry width="30" height="30" as="geometry">
            <mxRectangle width="30" height="30" as="alternateBounds" />
          </mxGeometry>
        </mxCell>
        <mxCell id="JnlNJfmrzM7XuylelDJF-39" value="descripcion" style="shape=partialRectangle;connectable=0;fillColor=none;top=0;left=0;bottom=0;right=0;align=left;spacingLeft=6;overflow=hidden;whiteSpace=wrap;html=1;" vertex="1" parent="JnlNJfmrzM7XuylelDJF-37">
          <mxGeometry x="30" width="150" height="30" as="geometry">
            <mxRectangle width="150" height="30" as="alternateBounds" />
          </mxGeometry>
        </mxCell>
        <mxCell id="JnlNJfmrzM7XuylelDJF-40" value="" style="shape=tableRow;horizontal=0;startSize=0;swimlaneHead=0;swimlaneBody=0;fillColor=none;collapsible=0;dropTarget=0;points=[[0,0.5],[1,0.5]];portConstraint=eastwest;top=0;left=0;right=0;bottom=0;" vertex="1" parent="JnlNJfmrzM7XuylelDJF-30">
          <mxGeometry y="120" width="180" height="30" as="geometry" />
        </mxCell>
        <mxCell id="JnlNJfmrzM7XuylelDJF-41" value="" style="shape=partialRectangle;connectable=0;fillColor=none;top=0;left=0;bottom=0;right=0;editable=1;overflow=hidden;whiteSpace=wrap;html=1;" vertex="1" parent="JnlNJfmrzM7XuylelDJF-40">
          <mxGeometry width="30" height="30" as="geometry">
            <mxRectangle width="30" height="30" as="alternateBounds" />
          </mxGeometry>
        </mxCell>
        <mxCell id="JnlNJfmrzM7XuylelDJF-42" value="presioTotal" style="shape=partialRectangle;connectable=0;fillColor=none;top=0;left=0;bottom=0;right=0;align=left;spacingLeft=6;overflow=hidden;whiteSpace=wrap;html=1;" vertex="1" parent="JnlNJfmrzM7XuylelDJF-40">
          <mxGeometry x="30" width="150" height="30" as="geometry">
            <mxRectangle width="150" height="30" as="alternateBounds" />
          </mxGeometry>
        </mxCell>
        <mxCell id="Fet96C-u9-jvLVX5C48e-1" value="" style="shape=tableRow;horizontal=0;startSize=0;swimlaneHead=0;swimlaneBody=0;fillColor=none;collapsible=0;dropTarget=0;points=[[0,0.5],[1,0.5]];portConstraint=eastwest;top=0;left=0;right=0;bottom=0;" vertex="1" parent="JnlNJfmrzM7XuylelDJF-30">
          <mxGeometry y="150" width="180" height="30" as="geometry" />
        </mxCell>
        <mxCell id="Fet96C-u9-jvLVX5C48e-2" value="FK" style="shape=partialRectangle;connectable=0;fillColor=none;top=0;left=0;bottom=0;right=0;editable=1;overflow=hidden;whiteSpace=wrap;html=1;" vertex="1" parent="Fet96C-u9-jvLVX5C48e-1">
          <mxGeometry width="30" height="30" as="geometry">
            <mxRectangle width="30" height="30" as="alternateBounds" />
          </mxGeometry>
        </mxCell>
        <mxCell id="Fet96C-u9-jvLVX5C48e-3" value="id_reserva" style="shape=partialRectangle;connectable=0;fillColor=none;top=0;left=0;bottom=0;right=0;align=left;spacingLeft=6;overflow=hidden;whiteSpace=wrap;html=1;" vertex="1" parent="Fet96C-u9-jvLVX5C48e-1">
          <mxGeometry x="30" width="150" height="30" as="geometry">
            <mxRectangle width="150" height="30" as="alternateBounds" />
          </mxGeometry>
        </mxCell>
        <mxCell id="JnlNJfmrzM7XuylelDJF-46" value="DESTINO" style="shape=table;startSize=30;container=1;collapsible=1;childLayout=tableLayout;fixedRows=1;rowLines=0;fontStyle=1;align=center;resizeLast=1;html=1;" vertex="1" parent="1">
          <mxGeometry x="-790" y="240" width="180" height="120" as="geometry" />
        </mxCell>
        <mxCell id="JnlNJfmrzM7XuylelDJF-47" value="" style="shape=tableRow;horizontal=0;startSize=0;swimlaneHead=0;swimlaneBody=0;fillColor=none;collapsible=0;dropTarget=0;points=[[0,0.5],[1,0.5]];portConstraint=eastwest;top=0;left=0;right=0;bottom=1;" vertex="1" parent="JnlNJfmrzM7XuylelDJF-46">
          <mxGeometry y="30" width="180" height="30" as="geometry" />
        </mxCell>
        <mxCell id="JnlNJfmrzM7XuylelDJF-48" value="PK" style="shape=partialRectangle;connectable=0;fillColor=none;top=0;left=0;bottom=0;right=0;fontStyle=1;overflow=hidden;whiteSpace=wrap;html=1;" vertex="1" parent="JnlNJfmrzM7XuylelDJF-47">
          <mxGeometry width="30" height="30" as="geometry">
            <mxRectangle width="30" height="30" as="alternateBounds" />
          </mxGeometry>
        </mxCell>
        <mxCell id="JnlNJfmrzM7XuylelDJF-49" value="id_Destino" style="shape=partialRectangle;connectable=0;fillColor=none;top=0;left=0;bottom=0;right=0;align=left;spacingLeft=6;fontStyle=5;overflow=hidden;whiteSpace=wrap;html=1;" vertex="1" parent="JnlNJfmrzM7XuylelDJF-47">
          <mxGeometry x="30" width="150" height="30" as="geometry">
            <mxRectangle width="150" height="30" as="alternateBounds" />
          </mxGeometry>
        </mxCell>
        <mxCell id="JnlNJfmrzM7XuylelDJF-50" value="" style="shape=tableRow;horizontal=0;startSize=0;swimlaneHead=0;swimlaneBody=0;fillColor=none;collapsible=0;dropTarget=0;points=[[0,0.5],[1,0.5]];portConstraint=eastwest;top=0;left=0;right=0;bottom=0;" vertex="1" parent="JnlNJfmrzM7XuylelDJF-46">
          <mxGeometry y="60" width="180" height="30" as="geometry" />
        </mxCell>
        <mxCell id="JnlNJfmrzM7XuylelDJF-51" value="" style="shape=partialRectangle;connectable=0;fillColor=none;top=0;left=0;bottom=0;right=0;editable=1;overflow=hidden;whiteSpace=wrap;html=1;" vertex="1" parent="JnlNJfmrzM7XuylelDJF-50">
          <mxGeometry width="30" height="30" as="geometry">
            <mxRectangle width="30" height="30" as="alternateBounds" />
          </mxGeometry>
        </mxCell>
        <mxCell id="JnlNJfmrzM7XuylelDJF-52" value="direccion" style="shape=partialRectangle;connectable=0;fillColor=none;top=0;left=0;bottom=0;right=0;align=left;spacingLeft=6;overflow=hidden;whiteSpace=wrap;html=1;" vertex="1" parent="JnlNJfmrzM7XuylelDJF-50">
          <mxGeometry x="30" width="150" height="30" as="geometry">
            <mxRectangle width="150" height="30" as="alternateBounds" />
          </mxGeometry>
        </mxCell>
        <mxCell id="JnlNJfmrzM7XuylelDJF-53" value="" style="shape=tableRow;horizontal=0;startSize=0;swimlaneHead=0;swimlaneBody=0;fillColor=none;collapsible=0;dropTarget=0;points=[[0,0.5],[1,0.5]];portConstraint=eastwest;top=0;left=0;right=0;bottom=0;" vertex="1" parent="JnlNJfmrzM7XuylelDJF-46">
          <mxGeometry y="90" width="180" height="30" as="geometry" />
        </mxCell>
        <mxCell id="JnlNJfmrzM7XuylelDJF-54" value="" style="shape=partialRectangle;connectable=0;fillColor=none;top=0;left=0;bottom=0;right=0;editable=1;overflow=hidden;whiteSpace=wrap;html=1;" vertex="1" parent="JnlNJfmrzM7XuylelDJF-53">
          <mxGeometry width="30" height="30" as="geometry">
            <mxRectangle width="30" height="30" as="alternateBounds" />
          </mxGeometry>
        </mxCell>
        <mxCell id="JnlNJfmrzM7XuylelDJF-55" value="descripcion" style="shape=partialRectangle;connectable=0;fillColor=none;top=0;left=0;bottom=0;right=0;align=left;spacingLeft=6;overflow=hidden;whiteSpace=wrap;html=1;" vertex="1" parent="JnlNJfmrzM7XuylelDJF-53">
          <mxGeometry x="30" width="150" height="30" as="geometry">
            <mxRectangle width="150" height="30" as="alternateBounds" />
          </mxGeometry>
        </mxCell>
        <mxCell id="JnlNJfmrzM7XuylelDJF-56" value="HOTEL" style="shape=table;startSize=30;container=1;collapsible=1;childLayout=tableLayout;fixedRows=1;rowLines=0;fontStyle=1;align=center;resizeLast=1;html=1;" vertex="1" parent="1">
          <mxGeometry x="-780" y="-80" width="180" height="120" as="geometry" />
        </mxCell>
        <mxCell id="JnlNJfmrzM7XuylelDJF-57" value="" style="shape=tableRow;horizontal=0;startSize=0;swimlaneHead=0;swimlaneBody=0;fillColor=none;collapsible=0;dropTarget=0;points=[[0,0.5],[1,0.5]];portConstraint=eastwest;top=0;left=0;right=0;bottom=1;" vertex="1" parent="JnlNJfmrzM7XuylelDJF-56">
          <mxGeometry y="30" width="180" height="30" as="geometry" />
        </mxCell>
        <mxCell id="JnlNJfmrzM7XuylelDJF-58" value="PK" style="shape=partialRectangle;connectable=0;fillColor=none;top=0;left=0;bottom=0;right=0;fontStyle=1;overflow=hidden;whiteSpace=wrap;html=1;" vertex="1" parent="JnlNJfmrzM7XuylelDJF-57">
          <mxGeometry width="30" height="30" as="geometry">
            <mxRectangle width="30" height="30" as="alternateBounds" />
          </mxGeometry>
        </mxCell>
        <mxCell id="JnlNJfmrzM7XuylelDJF-59" value="id_hotel" style="shape=partialRectangle;connectable=0;fillColor=none;top=0;left=0;bottom=0;right=0;align=left;spacingLeft=6;fontStyle=5;overflow=hidden;whiteSpace=wrap;html=1;" vertex="1" parent="JnlNJfmrzM7XuylelDJF-57">
          <mxGeometry x="30" width="150" height="30" as="geometry">
            <mxRectangle width="150" height="30" as="alternateBounds" />
          </mxGeometry>
        </mxCell>
        <mxCell id="JnlNJfmrzM7XuylelDJF-60" value="" style="shape=tableRow;horizontal=0;startSize=0;swimlaneHead=0;swimlaneBody=0;fillColor=none;collapsible=0;dropTarget=0;points=[[0,0.5],[1,0.5]];portConstraint=eastwest;top=0;left=0;right=0;bottom=0;" vertex="1" parent="JnlNJfmrzM7XuylelDJF-56">
          <mxGeometry y="60" width="180" height="30" as="geometry" />
        </mxCell>
        <mxCell id="JnlNJfmrzM7XuylelDJF-61" value="" style="shape=partialRectangle;connectable=0;fillColor=none;top=0;left=0;bottom=0;right=0;editable=1;overflow=hidden;whiteSpace=wrap;html=1;" vertex="1" parent="JnlNJfmrzM7XuylelDJF-60">
          <mxGeometry width="30" height="30" as="geometry">
            <mxRectangle width="30" height="30" as="alternateBounds" />
          </mxGeometry>
        </mxCell>
        <mxCell id="JnlNJfmrzM7XuylelDJF-62" value="nombreHotel" style="shape=partialRectangle;connectable=0;fillColor=none;top=0;left=0;bottom=0;right=0;align=left;spacingLeft=6;overflow=hidden;whiteSpace=wrap;html=1;" vertex="1" parent="JnlNJfmrzM7XuylelDJF-60">
          <mxGeometry x="30" width="150" height="30" as="geometry">
            <mxRectangle width="150" height="30" as="alternateBounds" />
          </mxGeometry>
        </mxCell>
        <mxCell id="JnlNJfmrzM7XuylelDJF-63" value="" style="shape=tableRow;horizontal=0;startSize=0;swimlaneHead=0;swimlaneBody=0;fillColor=none;collapsible=0;dropTarget=0;points=[[0,0.5],[1,0.5]];portConstraint=eastwest;top=0;left=0;right=0;bottom=0;" vertex="1" parent="JnlNJfmrzM7XuylelDJF-56">
          <mxGeometry y="90" width="180" height="30" as="geometry" />
        </mxCell>
        <mxCell id="JnlNJfmrzM7XuylelDJF-64" value="" style="shape=partialRectangle;connectable=0;fillColor=none;top=0;left=0;bottom=0;right=0;editable=1;overflow=hidden;whiteSpace=wrap;html=1;" vertex="1" parent="JnlNJfmrzM7XuylelDJF-63">
          <mxGeometry width="30" height="30" as="geometry">
            <mxRectangle width="30" height="30" as="alternateBounds" />
          </mxGeometry>
        </mxCell>
        <mxCell id="JnlNJfmrzM7XuylelDJF-65" value="descripcion" style="shape=partialRectangle;connectable=0;fillColor=none;top=0;left=0;bottom=0;right=0;align=left;spacingLeft=6;overflow=hidden;whiteSpace=wrap;html=1;" vertex="1" parent="JnlNJfmrzM7XuylelDJF-63">
          <mxGeometry x="30" width="150" height="30" as="geometry">
            <mxRectangle width="150" height="30" as="alternateBounds" />
          </mxGeometry>
        </mxCell>
        <mxCell id="JnlNJfmrzM7XuylelDJF-66" value="TRASPORTE" style="shape=table;startSize=30;container=1;collapsible=1;childLayout=tableLayout;fixedRows=1;rowLines=0;fontStyle=1;align=center;resizeLast=1;html=1;" vertex="1" parent="1">
          <mxGeometry x="-780" y="65" width="180" height="120" as="geometry" />
        </mxCell>
        <mxCell id="JnlNJfmrzM7XuylelDJF-67" value="" style="shape=tableRow;horizontal=0;startSize=0;swimlaneHead=0;swimlaneBody=0;fillColor=none;collapsible=0;dropTarget=0;points=[[0,0.5],[1,0.5]];portConstraint=eastwest;top=0;left=0;right=0;bottom=1;" vertex="1" parent="JnlNJfmrzM7XuylelDJF-66">
          <mxGeometry y="30" width="180" height="30" as="geometry" />
        </mxCell>
        <mxCell id="JnlNJfmrzM7XuylelDJF-68" value="PK" style="shape=partialRectangle;connectable=0;fillColor=none;top=0;left=0;bottom=0;right=0;fontStyle=1;overflow=hidden;whiteSpace=wrap;html=1;" vertex="1" parent="JnlNJfmrzM7XuylelDJF-67">
          <mxGeometry width="30" height="30" as="geometry">
            <mxRectangle width="30" height="30" as="alternateBounds" />
          </mxGeometry>
        </mxCell>
        <mxCell id="JnlNJfmrzM7XuylelDJF-69" value="id_transporte" style="shape=partialRectangle;connectable=0;fillColor=none;top=0;left=0;bottom=0;right=0;align=left;spacingLeft=6;fontStyle=5;overflow=hidden;whiteSpace=wrap;html=1;" vertex="1" parent="JnlNJfmrzM7XuylelDJF-67">
          <mxGeometry x="30" width="150" height="30" as="geometry">
            <mxRectangle width="150" height="30" as="alternateBounds" />
          </mxGeometry>
        </mxCell>
        <mxCell id="JnlNJfmrzM7XuylelDJF-70" value="" style="shape=tableRow;horizontal=0;startSize=0;swimlaneHead=0;swimlaneBody=0;fillColor=none;collapsible=0;dropTarget=0;points=[[0,0.5],[1,0.5]];portConstraint=eastwest;top=0;left=0;right=0;bottom=0;" vertex="1" parent="JnlNJfmrzM7XuylelDJF-66">
          <mxGeometry y="60" width="180" height="30" as="geometry" />
        </mxCell>
        <mxCell id="JnlNJfmrzM7XuylelDJF-71" value="" style="shape=partialRectangle;connectable=0;fillColor=none;top=0;left=0;bottom=0;right=0;editable=1;overflow=hidden;whiteSpace=wrap;html=1;" vertex="1" parent="JnlNJfmrzM7XuylelDJF-70">
          <mxGeometry width="30" height="30" as="geometry">
            <mxRectangle width="30" height="30" as="alternateBounds" />
          </mxGeometry>
        </mxCell>
        <mxCell id="JnlNJfmrzM7XuylelDJF-72" value="tipoTransporte" style="shape=partialRectangle;connectable=0;fillColor=none;top=0;left=0;bottom=0;right=0;align=left;spacingLeft=6;overflow=hidden;whiteSpace=wrap;html=1;" vertex="1" parent="JnlNJfmrzM7XuylelDJF-70">
          <mxGeometry x="30" width="150" height="30" as="geometry">
            <mxRectangle width="150" height="30" as="alternateBounds" />
          </mxGeometry>
        </mxCell>
        <mxCell id="JnlNJfmrzM7XuylelDJF-73" value="" style="shape=tableRow;horizontal=0;startSize=0;swimlaneHead=0;swimlaneBody=0;fillColor=none;collapsible=0;dropTarget=0;points=[[0,0.5],[1,0.5]];portConstraint=eastwest;top=0;left=0;right=0;bottom=0;" vertex="1" parent="JnlNJfmrzM7XuylelDJF-66">
          <mxGeometry y="90" width="180" height="30" as="geometry" />
        </mxCell>
        <mxCell id="JnlNJfmrzM7XuylelDJF-74" value="" style="shape=partialRectangle;connectable=0;fillColor=none;top=0;left=0;bottom=0;right=0;editable=1;overflow=hidden;whiteSpace=wrap;html=1;" vertex="1" parent="JnlNJfmrzM7XuylelDJF-73">
          <mxGeometry width="30" height="30" as="geometry">
            <mxRectangle width="30" height="30" as="alternateBounds" />
          </mxGeometry>
        </mxCell>
        <mxCell id="JnlNJfmrzM7XuylelDJF-75" value="empresa" style="shape=partialRectangle;connectable=0;fillColor=none;top=0;left=0;bottom=0;right=0;align=left;spacingLeft=6;overflow=hidden;whiteSpace=wrap;html=1;" vertex="1" parent="JnlNJfmrzM7XuylelDJF-73">
          <mxGeometry x="30" width="150" height="30" as="geometry">
            <mxRectangle width="150" height="30" as="alternateBounds" />
          </mxGeometry>
        </mxCell>
        <mxCell id="JnlNJfmrzM7XuylelDJF-76" value="" style="endArrow=none;html=1;rounded=0;exitX=1;exitY=0.5;exitDx=0;exitDy=0;entryX=0;entryY=0.5;entryDx=0;entryDy=0;" edge="1" parent="1" source="JnlNJfmrzM7XuylelDJF-2" target="JnlNJfmrzM7XuylelDJF-27">
          <mxGeometry width="50" height="50" relative="1" as="geometry">
            <mxPoint x="390" y="430" as="sourcePoint" />
            <mxPoint x="440" y="380" as="targetPoint" />
          </mxGeometry>
        </mxCell>
        <mxCell id="JnlNJfmrzM7XuylelDJF-78" value="&lt;span style=&quot;font-size: 11px; font-weight: 400; background-color: rgb(255, 255, 255);&quot;&gt;PAQUETE_DESTINO&lt;/span&gt;" style="shape=table;startSize=30;container=1;collapsible=1;childLayout=tableLayout;fixedRows=1;rowLines=0;fontStyle=1;align=center;resizeLast=1;html=1;" vertex="1" parent="1">
          <mxGeometry x="-450" y="230" width="180" height="90" as="geometry" />
        </mxCell>
        <mxCell id="JnlNJfmrzM7XuylelDJF-79" value="" style="shape=tableRow;horizontal=0;startSize=0;swimlaneHead=0;swimlaneBody=0;fillColor=none;collapsible=0;dropTarget=0;points=[[0,0.5],[1,0.5]];portConstraint=eastwest;top=0;left=0;right=0;bottom=1;" vertex="1" parent="JnlNJfmrzM7XuylelDJF-78">
          <mxGeometry y="30" width="180" height="30" as="geometry" />
        </mxCell>
        <mxCell id="JnlNJfmrzM7XuylelDJF-80" value="FK" style="shape=partialRectangle;connectable=0;fillColor=none;top=0;left=0;bottom=0;right=0;fontStyle=1;overflow=hidden;whiteSpace=wrap;html=1;" vertex="1" parent="JnlNJfmrzM7XuylelDJF-79">
          <mxGeometry width="30" height="30" as="geometry">
            <mxRectangle width="30" height="30" as="alternateBounds" />
          </mxGeometry>
        </mxCell>
        <mxCell id="JnlNJfmrzM7XuylelDJF-81" value="id_paquete" style="shape=partialRectangle;connectable=0;fillColor=none;top=0;left=0;bottom=0;right=0;align=left;spacingLeft=6;fontStyle=5;overflow=hidden;whiteSpace=wrap;html=1;" vertex="1" parent="JnlNJfmrzM7XuylelDJF-79">
          <mxGeometry x="30" width="150" height="30" as="geometry">
            <mxRectangle width="150" height="30" as="alternateBounds" />
          </mxGeometry>
        </mxCell>
        <mxCell id="JnlNJfmrzM7XuylelDJF-82" value="" style="shape=tableRow;horizontal=0;startSize=0;swimlaneHead=0;swimlaneBody=0;fillColor=none;collapsible=0;dropTarget=0;points=[[0,0.5],[1,0.5]];portConstraint=eastwest;top=0;left=0;right=0;bottom=1;" vertex="1" parent="JnlNJfmrzM7XuylelDJF-78">
          <mxGeometry y="60" width="180" height="30" as="geometry" />
        </mxCell>
        <mxCell id="JnlNJfmrzM7XuylelDJF-83" value="FK" style="shape=partialRectangle;connectable=0;fillColor=none;top=0;left=0;bottom=0;right=0;fontStyle=1;overflow=hidden;whiteSpace=wrap;html=1;" vertex="1" parent="JnlNJfmrzM7XuylelDJF-82">
          <mxGeometry width="30" height="30" as="geometry">
            <mxRectangle width="30" height="30" as="alternateBounds" />
          </mxGeometry>
        </mxCell>
        <mxCell id="JnlNJfmrzM7XuylelDJF-84" value="id_destino" style="shape=partialRectangle;connectable=0;fillColor=none;top=0;left=0;bottom=0;right=0;align=left;spacingLeft=6;fontStyle=5;overflow=hidden;whiteSpace=wrap;html=1;" vertex="1" parent="JnlNJfmrzM7XuylelDJF-82">
          <mxGeometry x="30" width="150" height="30" as="geometry">
            <mxRectangle width="150" height="30" as="alternateBounds" />
          </mxGeometry>
        </mxCell>
        <mxCell id="JnlNJfmrzM7XuylelDJF-85" value="" style="endArrow=none;html=1;rounded=0;entryX=0;entryY=0.5;entryDx=0;entryDy=0;exitX=1;exitY=0.5;exitDx=0;exitDy=0;" edge="1" parent="1" source="JnlNJfmrzM7XuylelDJF-79" target="JnlNJfmrzM7XuylelDJF-31">
          <mxGeometry width="50" height="50" relative="1" as="geometry">
            <mxPoint x="-240" y="220" as="sourcePoint" />
            <mxPoint x="-190" y="170" as="targetPoint" />
            <Array as="points">
              <mxPoint x="-190" y="230" />
            </Array>
          </mxGeometry>
        </mxCell>
        <mxCell id="JnlNJfmrzM7XuylelDJF-86" value="" style="endArrow=none;html=1;rounded=0;exitX=0;exitY=0.5;exitDx=0;exitDy=0;entryX=1;entryY=0.5;entryDx=0;entryDy=0;" edge="1" parent="1" source="JnlNJfmrzM7XuylelDJF-82" target="JnlNJfmrzM7XuylelDJF-47">
          <mxGeometry width="50" height="50" relative="1" as="geometry">
            <mxPoint x="390" y="430" as="sourcePoint" />
            <mxPoint x="440" y="380" as="targetPoint" />
            <Array as="points">
              <mxPoint x="-530" y="300" />
            </Array>
          </mxGeometry>
        </mxCell>
        <mxCell id="JnlNJfmrzM7XuylelDJF-87" value="&lt;span style=&quot;font-size: 11px; font-weight: 400; background-color: rgb(255, 255, 255);&quot;&gt;PAQUETE_TRASPORTE&lt;/span&gt;" style="shape=table;startSize=30;container=1;collapsible=1;childLayout=tableLayout;fixedRows=1;rowLines=0;fontStyle=1;align=center;resizeLast=1;html=1;" vertex="1" parent="1">
          <mxGeometry x="-440" y="80" width="180" height="90" as="geometry" />
        </mxCell>
        <mxCell id="JnlNJfmrzM7XuylelDJF-88" value="" style="shape=tableRow;horizontal=0;startSize=0;swimlaneHead=0;swimlaneBody=0;fillColor=none;collapsible=0;dropTarget=0;points=[[0,0.5],[1,0.5]];portConstraint=eastwest;top=0;left=0;right=0;bottom=1;" vertex="1" parent="JnlNJfmrzM7XuylelDJF-87">
          <mxGeometry y="30" width="180" height="30" as="geometry" />
        </mxCell>
        <mxCell id="JnlNJfmrzM7XuylelDJF-89" value="FK" style="shape=partialRectangle;connectable=0;fillColor=none;top=0;left=0;bottom=0;right=0;fontStyle=1;overflow=hidden;whiteSpace=wrap;html=1;" vertex="1" parent="JnlNJfmrzM7XuylelDJF-88">
          <mxGeometry width="30" height="30" as="geometry">
            <mxRectangle width="30" height="30" as="alternateBounds" />
          </mxGeometry>
        </mxCell>
        <mxCell id="JnlNJfmrzM7XuylelDJF-90" value="id_paquete" style="shape=partialRectangle;connectable=0;fillColor=none;top=0;left=0;bottom=0;right=0;align=left;spacingLeft=6;fontStyle=5;overflow=hidden;whiteSpace=wrap;html=1;" vertex="1" parent="JnlNJfmrzM7XuylelDJF-88">
          <mxGeometry x="30" width="150" height="30" as="geometry">
            <mxRectangle width="150" height="30" as="alternateBounds" />
          </mxGeometry>
        </mxCell>
        <mxCell id="JnlNJfmrzM7XuylelDJF-91" value="" style="shape=tableRow;horizontal=0;startSize=0;swimlaneHead=0;swimlaneBody=0;fillColor=none;collapsible=0;dropTarget=0;points=[[0,0.5],[1,0.5]];portConstraint=eastwest;top=0;left=0;right=0;bottom=1;" vertex="1" parent="JnlNJfmrzM7XuylelDJF-87">
          <mxGeometry y="60" width="180" height="30" as="geometry" />
        </mxCell>
        <mxCell id="JnlNJfmrzM7XuylelDJF-92" value="FK" style="shape=partialRectangle;connectable=0;fillColor=none;top=0;left=0;bottom=0;right=0;fontStyle=1;overflow=hidden;whiteSpace=wrap;html=1;" vertex="1" parent="JnlNJfmrzM7XuylelDJF-91">
          <mxGeometry width="30" height="30" as="geometry">
            <mxRectangle width="30" height="30" as="alternateBounds" />
          </mxGeometry>
        </mxCell>
        <mxCell id="JnlNJfmrzM7XuylelDJF-93" value="id_transporte" style="shape=partialRectangle;connectable=0;fillColor=none;top=0;left=0;bottom=0;right=0;align=left;spacingLeft=6;fontStyle=5;overflow=hidden;whiteSpace=wrap;html=1;" vertex="1" parent="JnlNJfmrzM7XuylelDJF-91">
          <mxGeometry x="30" width="150" height="30" as="geometry">
            <mxRectangle width="150" height="30" as="alternateBounds" />
          </mxGeometry>
        </mxCell>
        <mxCell id="JnlNJfmrzM7XuylelDJF-94" value="" style="endArrow=none;html=1;rounded=0;entryX=0;entryY=0.5;entryDx=0;entryDy=0;exitX=1;exitY=0.5;exitDx=0;exitDy=0;" edge="1" parent="1" source="JnlNJfmrzM7XuylelDJF-88" target="JnlNJfmrzM7XuylelDJF-31">
          <mxGeometry width="50" height="50" relative="1" as="geometry">
            <mxPoint x="-260" y="300" as="sourcePoint" />
            <mxPoint x="-210" y="250" as="targetPoint" />
          </mxGeometry>
        </mxCell>
        <mxCell id="JnlNJfmrzM7XuylelDJF-96" value="&lt;span style=&quot;font-size: 11px; font-weight: 400; background-color: rgb(255, 255, 255);&quot;&gt;PAQUETE_HOTEL&lt;/span&gt;" style="shape=table;startSize=30;container=1;collapsible=1;childLayout=tableLayout;fixedRows=1;rowLines=0;fontStyle=1;align=center;resizeLast=1;html=1;" vertex="1" parent="1">
          <mxGeometry x="-440" y="-50" width="180" height="90" as="geometry" />
        </mxCell>
        <mxCell id="JnlNJfmrzM7XuylelDJF-97" value="" style="shape=tableRow;horizontal=0;startSize=0;swimlaneHead=0;swimlaneBody=0;fillColor=none;collapsible=0;dropTarget=0;points=[[0,0.5],[1,0.5]];portConstraint=eastwest;top=0;left=0;right=0;bottom=1;" vertex="1" parent="JnlNJfmrzM7XuylelDJF-96">
          <mxGeometry y="30" width="180" height="30" as="geometry" />
        </mxCell>
        <mxCell id="JnlNJfmrzM7XuylelDJF-98" value="FK" style="shape=partialRectangle;connectable=0;fillColor=none;top=0;left=0;bottom=0;right=0;fontStyle=1;overflow=hidden;whiteSpace=wrap;html=1;" vertex="1" parent="JnlNJfmrzM7XuylelDJF-97">
          <mxGeometry width="30" height="30" as="geometry">
            <mxRectangle width="30" height="30" as="alternateBounds" />
          </mxGeometry>
        </mxCell>
        <mxCell id="JnlNJfmrzM7XuylelDJF-99" value="id_paquete" style="shape=partialRectangle;connectable=0;fillColor=none;top=0;left=0;bottom=0;right=0;align=left;spacingLeft=6;fontStyle=5;overflow=hidden;whiteSpace=wrap;html=1;" vertex="1" parent="JnlNJfmrzM7XuylelDJF-97">
          <mxGeometry x="30" width="150" height="30" as="geometry">
            <mxRectangle width="150" height="30" as="alternateBounds" />
          </mxGeometry>
        </mxCell>
        <mxCell id="JnlNJfmrzM7XuylelDJF-100" value="" style="shape=tableRow;horizontal=0;startSize=0;swimlaneHead=0;swimlaneBody=0;fillColor=none;collapsible=0;dropTarget=0;points=[[0,0.5],[1,0.5]];portConstraint=eastwest;top=0;left=0;right=0;bottom=1;" vertex="1" parent="JnlNJfmrzM7XuylelDJF-96">
          <mxGeometry y="60" width="180" height="30" as="geometry" />
        </mxCell>
        <mxCell id="JnlNJfmrzM7XuylelDJF-101" value="FK" style="shape=partialRectangle;connectable=0;fillColor=none;top=0;left=0;bottom=0;right=0;fontStyle=1;overflow=hidden;whiteSpace=wrap;html=1;" vertex="1" parent="JnlNJfmrzM7XuylelDJF-100">
          <mxGeometry width="30" height="30" as="geometry">
            <mxRectangle width="30" height="30" as="alternateBounds" />
          </mxGeometry>
        </mxCell>
        <mxCell id="JnlNJfmrzM7XuylelDJF-102" value="id_hotel" style="shape=partialRectangle;connectable=0;fillColor=none;top=0;left=0;bottom=0;right=0;align=left;spacingLeft=6;fontStyle=5;overflow=hidden;whiteSpace=wrap;html=1;" vertex="1" parent="JnlNJfmrzM7XuylelDJF-100">
          <mxGeometry x="30" width="150" height="30" as="geometry">
            <mxRectangle width="150" height="30" as="alternateBounds" />
          </mxGeometry>
        </mxCell>
        <mxCell id="JnlNJfmrzM7XuylelDJF-103" value="" style="endArrow=none;html=1;rounded=0;exitX=1;exitY=0.5;exitDx=0;exitDy=0;entryX=0;entryY=0.5;entryDx=0;entryDy=0;" edge="1" parent="1" source="JnlNJfmrzM7XuylelDJF-57" target="JnlNJfmrzM7XuylelDJF-100">
          <mxGeometry width="50" height="50" relative="1" as="geometry">
            <mxPoint y="320" as="sourcePoint" />
            <mxPoint x="-60" y="-80" as="targetPoint" />
          </mxGeometry>
        </mxCell>
        <mxCell id="JnlNJfmrzM7XuylelDJF-105" value="" style="endArrow=none;html=1;rounded=0;exitX=1;exitY=0.5;exitDx=0;exitDy=0;entryX=0;entryY=0.5;entryDx=0;entryDy=0;" edge="1" parent="1" source="JnlNJfmrzM7XuylelDJF-67" target="JnlNJfmrzM7XuylelDJF-91">
          <mxGeometry relative="1" as="geometry">
            <mxPoint x="-640" y="250" as="sourcePoint" />
            <mxPoint x="-480" y="250" as="targetPoint" />
          </mxGeometry>
        </mxCell>
        <mxCell id="JnlNJfmrzM7XuylelDJF-106" value="" style="endArrow=none;html=1;rounded=0;exitX=1;exitY=0.5;exitDx=0;exitDy=0;entryX=0;entryY=0.5;entryDx=0;entryDy=0;" edge="1" parent="1" source="JnlNJfmrzM7XuylelDJF-97" target="JnlNJfmrzM7XuylelDJF-31">
          <mxGeometry relative="1" as="geometry">
            <mxPoint x="-230" y="210" as="sourcePoint" />
            <mxPoint x="-70" y="210" as="targetPoint" />
          </mxGeometry>
        </mxCell>
        <mxCell id="8tsVTr8sMqIm6cyrteqp-1" value="RESERVAS" style="shape=table;startSize=30;container=1;collapsible=1;childLayout=tableLayout;fixedRows=1;rowLines=0;fontStyle=1;align=center;resizeLast=1;html=1;" vertex="1" parent="1">
          <mxGeometry x="100" y="350" width="180" height="180" as="geometry" />
        </mxCell>
        <mxCell id="8tsVTr8sMqIm6cyrteqp-2" value="" style="shape=tableRow;horizontal=0;startSize=0;swimlaneHead=0;swimlaneBody=0;fillColor=none;collapsible=0;dropTarget=0;points=[[0,0.5],[1,0.5]];portConstraint=eastwest;top=0;left=0;right=0;bottom=1;" vertex="1" parent="8tsVTr8sMqIm6cyrteqp-1">
          <mxGeometry y="30" width="180" height="30" as="geometry" />
        </mxCell>
        <mxCell id="8tsVTr8sMqIm6cyrteqp-3" value="PK" style="shape=partialRectangle;connectable=0;fillColor=none;top=0;left=0;bottom=0;right=0;fontStyle=1;overflow=hidden;whiteSpace=wrap;html=1;" vertex="1" parent="8tsVTr8sMqIm6cyrteqp-2">
          <mxGeometry width="30" height="30" as="geometry">
            <mxRectangle width="30" height="30" as="alternateBounds" />
          </mxGeometry>
        </mxCell>
        <mxCell id="8tsVTr8sMqIm6cyrteqp-4" value="id_reservas" style="shape=partialRectangle;connectable=0;fillColor=none;top=0;left=0;bottom=0;right=0;align=left;spacingLeft=6;fontStyle=5;overflow=hidden;whiteSpace=wrap;html=1;" vertex="1" parent="8tsVTr8sMqIm6cyrteqp-2">
          <mxGeometry x="30" width="150" height="30" as="geometry">
            <mxRectangle width="150" height="30" as="alternateBounds" />
          </mxGeometry>
        </mxCell>
        <mxCell id="8tsVTr8sMqIm6cyrteqp-8" value="" style="shape=tableRow;horizontal=0;startSize=0;swimlaneHead=0;swimlaneBody=0;fillColor=none;collapsible=0;dropTarget=0;points=[[0,0.5],[1,0.5]];portConstraint=eastwest;top=0;left=0;right=0;bottom=0;" vertex="1" parent="8tsVTr8sMqIm6cyrteqp-1">
          <mxGeometry y="60" width="180" height="30" as="geometry" />
        </mxCell>
        <mxCell id="8tsVTr8sMqIm6cyrteqp-9" value="" style="shape=partialRectangle;connectable=0;fillColor=none;top=0;left=0;bottom=0;right=0;editable=1;overflow=hidden;whiteSpace=wrap;html=1;" vertex="1" parent="8tsVTr8sMqIm6cyrteqp-8">
          <mxGeometry width="30" height="30" as="geometry">
            <mxRectangle width="30" height="30" as="alternateBounds" />
          </mxGeometry>
        </mxCell>
        <mxCell id="8tsVTr8sMqIm6cyrteqp-10" value="fecha" style="shape=partialRectangle;connectable=0;fillColor=none;top=0;left=0;bottom=0;right=0;align=left;spacingLeft=6;overflow=hidden;whiteSpace=wrap;html=1;" vertex="1" parent="8tsVTr8sMqIm6cyrteqp-8">
          <mxGeometry x="30" width="150" height="30" as="geometry">
            <mxRectangle width="150" height="30" as="alternateBounds" />
          </mxGeometry>
        </mxCell>
        <mxCell id="8tsVTr8sMqIm6cyrteqp-11" value="" style="shape=tableRow;horizontal=0;startSize=0;swimlaneHead=0;swimlaneBody=0;fillColor=none;collapsible=0;dropTarget=0;points=[[0,0.5],[1,0.5]];portConstraint=eastwest;top=0;left=0;right=0;bottom=0;" vertex="1" parent="8tsVTr8sMqIm6cyrteqp-1">
          <mxGeometry y="90" width="180" height="30" as="geometry" />
        </mxCell>
        <mxCell id="8tsVTr8sMqIm6cyrteqp-12" value="" style="shape=partialRectangle;connectable=0;fillColor=none;top=0;left=0;bottom=0;right=0;editable=1;overflow=hidden;whiteSpace=wrap;html=1;" vertex="1" parent="8tsVTr8sMqIm6cyrteqp-11">
          <mxGeometry width="30" height="30" as="geometry">
            <mxRectangle width="30" height="30" as="alternateBounds" />
          </mxGeometry>
        </mxCell>
        <mxCell id="8tsVTr8sMqIm6cyrteqp-13" value="estado" style="shape=partialRectangle;connectable=0;fillColor=none;top=0;left=0;bottom=0;right=0;align=left;spacingLeft=6;overflow=hidden;whiteSpace=wrap;html=1;" vertex="1" parent="8tsVTr8sMqIm6cyrteqp-11">
          <mxGeometry x="30" width="150" height="30" as="geometry">
            <mxRectangle width="150" height="30" as="alternateBounds" />
          </mxGeometry>
        </mxCell>
        <mxCell id="8tsVTr8sMqIm6cyrteqp-14" value="" style="shape=tableRow;horizontal=0;startSize=0;swimlaneHead=0;swimlaneBody=0;fillColor=none;collapsible=0;dropTarget=0;points=[[0,0.5],[1,0.5]];portConstraint=eastwest;top=0;left=0;right=0;bottom=0;" vertex="1" parent="8tsVTr8sMqIm6cyrteqp-1">
          <mxGeometry y="120" width="180" height="30" as="geometry" />
        </mxCell>
        <mxCell id="8tsVTr8sMqIm6cyrteqp-15" value="FK" style="shape=partialRectangle;connectable=0;fillColor=none;top=0;left=0;bottom=0;right=0;editable=1;overflow=hidden;whiteSpace=wrap;html=1;" vertex="1" parent="8tsVTr8sMqIm6cyrteqp-14">
          <mxGeometry width="30" height="30" as="geometry">
            <mxRectangle width="30" height="30" as="alternateBounds" />
          </mxGeometry>
        </mxCell>
        <mxCell id="8tsVTr8sMqIm6cyrteqp-16" value="id_usuario" style="shape=partialRectangle;connectable=0;fillColor=none;top=0;left=0;bottom=0;right=0;align=left;spacingLeft=6;overflow=hidden;whiteSpace=wrap;html=1;" vertex="1" parent="8tsVTr8sMqIm6cyrteqp-14">
          <mxGeometry x="30" width="150" height="30" as="geometry">
            <mxRectangle width="150" height="30" as="alternateBounds" />
          </mxGeometry>
        </mxCell>
        <mxCell id="d4u3sRpw_Tlq_5k8m-9k-1" value="" style="shape=tableRow;horizontal=0;startSize=0;swimlaneHead=0;swimlaneBody=0;fillColor=none;collapsible=0;dropTarget=0;points=[[0,0.5],[1,0.5]];portConstraint=eastwest;top=0;left=0;right=0;bottom=0;" vertex="1" parent="8tsVTr8sMqIm6cyrteqp-1">
          <mxGeometry y="150" width="180" height="30" as="geometry" />
        </mxCell>
        <mxCell id="d4u3sRpw_Tlq_5k8m-9k-2" value="FK" style="shape=partialRectangle;connectable=0;fillColor=none;top=0;left=0;bottom=0;right=0;editable=1;overflow=hidden;whiteSpace=wrap;html=1;" vertex="1" parent="d4u3sRpw_Tlq_5k8m-9k-1">
          <mxGeometry width="30" height="30" as="geometry">
            <mxRectangle width="30" height="30" as="alternateBounds" />
          </mxGeometry>
        </mxCell>
        <mxCell id="d4u3sRpw_Tlq_5k8m-9k-3" value="id_paquete" style="shape=partialRectangle;connectable=0;fillColor=none;top=0;left=0;bottom=0;right=0;align=left;spacingLeft=6;overflow=hidden;whiteSpace=wrap;html=1;" vertex="1" parent="d4u3sRpw_Tlq_5k8m-9k-1">
          <mxGeometry x="30" width="150" height="30" as="geometry">
            <mxRectangle width="150" height="30" as="alternateBounds" />
          </mxGeometry>
        </mxCell>
        <mxCell id="Fet96C-u9-jvLVX5C48e-7" value="" style="endArrow=none;html=1;rounded=0;exitX=1;exitY=0.5;exitDx=0;exitDy=0;entryX=0;entryY=0.5;entryDx=0;entryDy=0;" edge="1" parent="1" source="Fet96C-u9-jvLVX5C48e-1" target="d4u3sRpw_Tlq_5k8m-9k-1">
          <mxGeometry relative="1" as="geometry">
            <mxPoint x="-80" y="210" as="sourcePoint" />
            <mxPoint x="80" y="210" as="targetPoint" />
          </mxGeometry>
        </mxCell>
        <mxCell id="Fet96C-u9-jvLVX5C48e-8" value="" style="endArrow=none;html=1;rounded=0;entryX=1;entryY=0.5;entryDx=0;entryDy=0;exitX=1;exitY=0.5;exitDx=0;exitDy=0;" edge="1" parent="1" source="8tsVTr8sMqIm6cyrteqp-14" target="Fet96C-u9-jvLVX5C48e-4">
          <mxGeometry relative="1" as="geometry">
            <mxPoint x="-80" y="210" as="sourcePoint" />
            <mxPoint x="80" y="210" as="targetPoint" />
            <Array as="points">
              <mxPoint x="390" y="430" />
            </Array>
          </mxGeometry>
        </mxCell>
        <mxCell id="OUDVzGfJdv8gZB2BdhNb-1" value="PAGO" style="shape=table;startSize=30;container=1;collapsible=1;childLayout=tableLayout;fixedRows=1;rowLines=0;fontStyle=1;align=center;resizeLast=1;html=1;" vertex="1" parent="1">
          <mxGeometry x="450" y="440" width="180" height="210" as="geometry" />
        </mxCell>
        <mxCell id="OUDVzGfJdv8gZB2BdhNb-2" value="" style="shape=tableRow;horizontal=0;startSize=0;swimlaneHead=0;swimlaneBody=0;fillColor=none;collapsible=0;dropTarget=0;points=[[0,0.5],[1,0.5]];portConstraint=eastwest;top=0;left=0;right=0;bottom=1;" vertex="1" parent="OUDVzGfJdv8gZB2BdhNb-1">
          <mxGeometry y="30" width="180" height="30" as="geometry" />
        </mxCell>
        <mxCell id="OUDVzGfJdv8gZB2BdhNb-3" value="PK" style="shape=partialRectangle;connectable=0;fillColor=none;top=0;left=0;bottom=0;right=0;fontStyle=1;overflow=hidden;whiteSpace=wrap;html=1;" vertex="1" parent="OUDVzGfJdv8gZB2BdhNb-2">
          <mxGeometry width="30" height="30" as="geometry">
            <mxRectangle width="30" height="30" as="alternateBounds" />
          </mxGeometry>
        </mxCell>
        <mxCell id="OUDVzGfJdv8gZB2BdhNb-4" value="id pago" style="shape=partialRectangle;connectable=0;fillColor=none;top=0;left=0;bottom=0;right=0;align=left;spacingLeft=6;fontStyle=5;overflow=hidden;whiteSpace=wrap;html=1;" vertex="1" parent="OUDVzGfJdv8gZB2BdhNb-2">
          <mxGeometry x="30" width="150" height="30" as="geometry">
            <mxRectangle width="150" height="30" as="alternateBounds" />
          </mxGeometry>
        </mxCell>
        <mxCell id="OUDVzGfJdv8gZB2BdhNb-5" value="" style="shape=tableRow;horizontal=0;startSize=0;swimlaneHead=0;swimlaneBody=0;fillColor=none;collapsible=0;dropTarget=0;points=[[0,0.5],[1,0.5]];portConstraint=eastwest;top=0;left=0;right=0;bottom=0;" vertex="1" parent="OUDVzGfJdv8gZB2BdhNb-1">
          <mxGeometry y="60" width="180" height="30" as="geometry" />
        </mxCell>
        <mxCell id="OUDVzGfJdv8gZB2BdhNb-6" value="FK" style="shape=partialRectangle;connectable=0;fillColor=none;top=0;left=0;bottom=0;right=0;editable=1;overflow=hidden;whiteSpace=wrap;html=1;" vertex="1" parent="OUDVzGfJdv8gZB2BdhNb-5">
          <mxGeometry width="30" height="30" as="geometry">
            <mxRectangle width="30" height="30" as="alternateBounds" />
          </mxGeometry>
        </mxCell>
        <mxCell id="OUDVzGfJdv8gZB2BdhNb-7" value="id_reserva" style="shape=partialRectangle;connectable=0;fillColor=none;top=0;left=0;bottom=0;right=0;align=left;spacingLeft=6;overflow=hidden;whiteSpace=wrap;html=1;" vertex="1" parent="OUDVzGfJdv8gZB2BdhNb-5">
          <mxGeometry x="30" width="150" height="30" as="geometry">
            <mxRectangle width="150" height="30" as="alternateBounds" />
          </mxGeometry>
        </mxCell>
        <mxCell id="OUDVzGfJdv8gZB2BdhNb-8" value="" style="shape=tableRow;horizontal=0;startSize=0;swimlaneHead=0;swimlaneBody=0;fillColor=none;collapsible=0;dropTarget=0;points=[[0,0.5],[1,0.5]];portConstraint=eastwest;top=0;left=0;right=0;bottom=0;" vertex="1" parent="OUDVzGfJdv8gZB2BdhNb-1">
          <mxGeometry y="90" width="180" height="30" as="geometry" />
        </mxCell>
        <mxCell id="OUDVzGfJdv8gZB2BdhNb-9" value="" style="shape=partialRectangle;connectable=0;fillColor=none;top=0;left=0;bottom=0;right=0;editable=1;overflow=hidden;whiteSpace=wrap;html=1;" vertex="1" parent="OUDVzGfJdv8gZB2BdhNb-8">
          <mxGeometry width="30" height="30" as="geometry">
            <mxRectangle width="30" height="30" as="alternateBounds" />
          </mxGeometry>
        </mxCell>
        <mxCell id="OUDVzGfJdv8gZB2BdhNb-10" value="monto" style="shape=partialRectangle;connectable=0;fillColor=none;top=0;left=0;bottom=0;right=0;align=left;spacingLeft=6;overflow=hidden;whiteSpace=wrap;html=1;" vertex="1" parent="OUDVzGfJdv8gZB2BdhNb-8">
          <mxGeometry x="30" width="150" height="30" as="geometry">
            <mxRectangle width="150" height="30" as="alternateBounds" />
          </mxGeometry>
        </mxCell>
        <mxCell id="mK_E1Ess0AwhNkP_GYRs-13" value="" style="shape=tableRow;horizontal=0;startSize=0;swimlaneHead=0;swimlaneBody=0;fillColor=none;collapsible=0;dropTarget=0;points=[[0,0.5],[1,0.5]];portConstraint=eastwest;top=0;left=0;right=0;bottom=0;" vertex="1" parent="OUDVzGfJdv8gZB2BdhNb-1">
          <mxGeometry y="120" width="180" height="30" as="geometry" />
        </mxCell>
        <mxCell id="mK_E1Ess0AwhNkP_GYRs-14" value="" style="shape=partialRectangle;connectable=0;fillColor=none;top=0;left=0;bottom=0;right=0;editable=1;overflow=hidden;whiteSpace=wrap;html=1;" vertex="1" parent="mK_E1Ess0AwhNkP_GYRs-13">
          <mxGeometry width="30" height="30" as="geometry">
            <mxRectangle width="30" height="30" as="alternateBounds" />
          </mxGeometry>
        </mxCell>
        <mxCell id="mK_E1Ess0AwhNkP_GYRs-15" value="metodoPago" style="shape=partialRectangle;connectable=0;fillColor=none;top=0;left=0;bottom=0;right=0;align=left;spacingLeft=6;overflow=hidden;whiteSpace=wrap;html=1;" vertex="1" parent="mK_E1Ess0AwhNkP_GYRs-13">
          <mxGeometry x="30" width="150" height="30" as="geometry">
            <mxRectangle width="150" height="30" as="alternateBounds" />
          </mxGeometry>
        </mxCell>
        <mxCell id="mK_E1Ess0AwhNkP_GYRs-16" value="" style="shape=tableRow;horizontal=0;startSize=0;swimlaneHead=0;swimlaneBody=0;fillColor=none;collapsible=0;dropTarget=0;points=[[0,0.5],[1,0.5]];portConstraint=eastwest;top=0;left=0;right=0;bottom=0;" vertex="1" parent="OUDVzGfJdv8gZB2BdhNb-1">
          <mxGeometry y="150" width="180" height="30" as="geometry" />
        </mxCell>
        <mxCell id="mK_E1Ess0AwhNkP_GYRs-17" value="" style="shape=partialRectangle;connectable=0;fillColor=none;top=0;left=0;bottom=0;right=0;editable=1;overflow=hidden;whiteSpace=wrap;html=1;" vertex="1" parent="mK_E1Ess0AwhNkP_GYRs-16">
          <mxGeometry width="30" height="30" as="geometry">
            <mxRectangle width="30" height="30" as="alternateBounds" />
          </mxGeometry>
        </mxCell>
        <mxCell id="mK_E1Ess0AwhNkP_GYRs-18" value="fecha" style="shape=partialRectangle;connectable=0;fillColor=none;top=0;left=0;bottom=0;right=0;align=left;spacingLeft=6;overflow=hidden;whiteSpace=wrap;html=1;" vertex="1" parent="mK_E1Ess0AwhNkP_GYRs-16">
          <mxGeometry x="30" width="150" height="30" as="geometry">
            <mxRectangle width="150" height="30" as="alternateBounds" />
          </mxGeometry>
        </mxCell>
        <mxCell id="mK_E1Ess0AwhNkP_GYRs-19" value="" style="shape=tableRow;horizontal=0;startSize=0;swimlaneHead=0;swimlaneBody=0;fillColor=none;collapsible=0;dropTarget=0;points=[[0,0.5],[1,0.5]];portConstraint=eastwest;top=0;left=0;right=0;bottom=0;" vertex="1" parent="OUDVzGfJdv8gZB2BdhNb-1">
          <mxGeometry y="180" width="180" height="30" as="geometry" />
        </mxCell>
        <mxCell id="mK_E1Ess0AwhNkP_GYRs-20" value="" style="shape=partialRectangle;connectable=0;fillColor=none;top=0;left=0;bottom=0;right=0;editable=1;overflow=hidden;whiteSpace=wrap;html=1;" vertex="1" parent="mK_E1Ess0AwhNkP_GYRs-19">
          <mxGeometry width="30" height="30" as="geometry">
            <mxRectangle width="30" height="30" as="alternateBounds" />
          </mxGeometry>
        </mxCell>
        <mxCell id="mK_E1Ess0AwhNkP_GYRs-21" value="estado" style="shape=partialRectangle;connectable=0;fillColor=none;top=0;left=0;bottom=0;right=0;align=left;spacingLeft=6;overflow=hidden;whiteSpace=wrap;html=1;" vertex="1" parent="mK_E1Ess0AwhNkP_GYRs-19">
          <mxGeometry x="30" width="150" height="30" as="geometry">
            <mxRectangle width="150" height="30" as="alternateBounds" />
          </mxGeometry>
        </mxCell>
        <mxCell id="mK_E1Ess0AwhNkP_GYRs-22" value="" style="endArrow=none;html=1;rounded=0;exitX=1;exitY=0.5;exitDx=0;exitDy=0;entryX=0;entryY=0.5;entryDx=0;entryDy=0;" edge="1" parent="1" source="8tsVTr8sMqIm6cyrteqp-2" target="OUDVzGfJdv8gZB2BdhNb-5">
          <mxGeometry relative="1" as="geometry">
            <mxPoint x="240" y="530" as="sourcePoint" />
            <mxPoint x="400" y="530" as="targetPoint" />
          </mxGeometry>
        </mxCell>
      </root>
    </mxGraphModel>
  </diagram>
</mxfile>
